<svg width="124" height="124" viewBox="0 0 124 124" fill="none" xmlns="http://www.w3.org/2000/svg">
<rect width="124" height="124" rx="6" fill="#EAF1FF"/>
<path fill-rule="evenodd" clip-rule="evenodd" d="M27.5734 35.0043C29.0335 35.0912 29.9284 36.7642 30.9166 38.0317C31.8391 39.2151 32.9781 40.3591 32.9996 41.9647C33.0214 43.5854 32.0252 44.9105 31.024 46.024C30.0576 47.0987 28.9031 48.0207 27.5734 47.9996C26.2577 47.9788 25.0884 47.0734 24.2143 45.9163C23.3933 44.8294 23.0741 43.417 23.0145 41.9647C22.9511 40.4182 23.0707 38.839 23.8739 37.6126C24.7861 36.2199 26.0808 34.9155 27.5734 35.0043Z" fill="#737169"/>
<path fill-rule="evenodd" clip-rule="evenodd" d="M42.345 86.0018C44.2097 86.038 46.2649 86.774 46.8527 89.3533C47.4487 91.969 46.1404 94.4145 44.6477 96.1068C42.9273 98.0572 40.7515 100.083 38.9335 98.3311C36.9488 96.4178 36.5627 92.3875 37.4527 89.1711C38.1906 86.5043 40.3722 85.9636 42.345 86.0018Z" fill="#737169"/>
<path fill-rule="evenodd" clip-rule="evenodd" d="M100.345 73.0018C102.21 73.038 104.265 73.774 104.853 76.3533C105.449 78.969 104.14 81.4145 102.648 83.1068C100.927 85.0572 98.7515 87.0835 96.9335 85.3311C94.9488 83.4178 94.5627 79.3875 95.4527 76.1711C96.1906 73.5043 98.3722 72.9636 100.345 73.0018Z" fill="#737169"/>
<path fill-rule="evenodd" clip-rule="evenodd" d="M38.5247 22.1072C40.0296 21.5175 41.6116 23.4767 42.2934 25.1567C42.8652 26.5657 41.481 28.018 41.5558 29.5759C41.6412 31.3538 43.71 33.1492 42.7433 34.5225C41.805 35.8555 39.9961 33.9853 38.5247 33.882C37.2301 33.7911 35.8558 34.8177 34.7826 33.9638C33.6077 33.0289 32.6668 31.1565 33.113 29.5759C33.5486 28.0327 35.7462 28.6091 36.6438 27.3703C37.7357 25.8634 36.9252 22.7339 38.5247 22.1072Z" fill="#E88163"/>
<path fill-rule="evenodd" clip-rule="evenodd" d="M42.5247 56.1072C44.0296 55.5175 45.6116 57.4767 46.2934 59.1567C46.8652 60.5657 45.481 62.018 45.5558 63.5759C45.6412 65.3538 47.71 67.1492 46.7433 68.5225C45.805 69.8555 43.9961 67.9853 42.5247 67.882C41.2301 67.7911 39.8558 68.8177 38.7826 67.9638C37.6077 67.0289 36.6668 65.1565 37.113 63.5759C37.5486 62.0327 39.7462 62.6091 40.6438 61.3703C41.7357 59.8634 40.9252 56.7339 42.5247 56.1072Z" fill="#E88163"/>
<path fill-rule="evenodd" clip-rule="evenodd" d="M90.8271 28.102C92.2859 27.767 94.2354 28.2307 94.8557 29.8883C95.4786 31.5531 93.9177 33.1477 93.349 34.8416C93.1009 35.5807 92.7972 36.1883 92.5016 36.9005C91.9233 38.2932 92.0401 40.4461 90.8271 40.9158C89.6213 41.3828 88.5767 39.7996 87.6127 38.7939C86.5191 37.6529 84.8965 36.6001 85.0052 34.8416C85.1134 33.0903 87.0267 32.6515 88.0667 31.4476C89.0446 30.3155 89.5068 28.4053 90.8271 28.102Z" fill="#E88163"/>
<path fill-rule="evenodd" clip-rule="evenodd" d="M31.4918 79.6658C33.3355 79.3628 35.8162 78.0381 36.7673 80.2728C37.7295 82.5336 35.4443 84.7807 34.6965 87.1956C34.2302 88.7012 34.3151 90.6184 33.3059 91.4507C32.2255 92.3417 30.8641 92.0475 29.7334 91.2888C28.5991 90.5277 27.774 89.1615 27.3915 87.4821C26.9575 85.5768 26.7232 83.3957 27.5685 81.7843C28.442 80.1192 30.0274 79.9064 31.4918 79.6658Z" fill="#F3D0A7"/>
<path fill-rule="evenodd" clip-rule="evenodd" d="M32.4918 57.6658C34.3355 57.3628 36.8162 56.0381 37.7673 58.2728C38.7295 60.5336 36.4443 62.7807 35.6965 65.1956C35.2302 66.7012 35.3151 68.6184 34.3059 69.4507C33.2255 70.3417 31.8641 70.0475 30.7334 69.2888C29.5991 68.5277 28.774 67.1615 28.3915 65.4821C27.9575 63.5768 27.7232 61.3957 28.5685 59.7843C29.442 58.1192 31.0274 57.9064 32.4918 57.6658Z" fill="#F3D0A7"/>
<path fill-rule="evenodd" clip-rule="evenodd" d="M94.4918 52.6658C96.3355 52.3628 98.8162 51.0381 99.7673 53.2728C100.73 55.5336 98.4443 57.7807 97.6965 60.1956C97.2302 61.7012 97.3151 63.6184 96.3059 64.4507C95.2255 65.3417 93.8641 65.0475 92.7334 64.2888C91.5991 63.5277 90.774 62.1615 90.3915 60.4821C89.9575 58.5768 89.7232 56.3957 90.5685 54.7843C91.442 53.1192 93.0274 52.9064 94.4918 52.6658Z" fill="#F3D0A7"/>
<path fill-rule="evenodd" clip-rule="evenodd" d="M62.2094 93.7917C63.4117 93.6365 64.6673 92.3922 65.6395 93.3737C66.7843 94.5296 67.0734 96.6694 66.9853 98.6136C66.871 101.134 66.6922 104.067 65.0974 105.335C63.4273 106.662 61.289 105.811 59.6288 104.46C58.1425 103.252 57.029 101.116 57.0003 98.7491C56.976 96.7417 58.3005 95.311 59.5041 94.1655C60.2872 93.4203 61.26 93.9142 62.2094 93.7917Z" fill="#F3D0A7"/>
<path fill-rule="evenodd" clip-rule="evenodd" d="M73.2094 35.7917C74.4117 35.6365 75.6673 34.3922 76.6395 35.3737C77.7843 36.5296 78.0734 38.6694 77.9853 40.6136C77.871 43.1344 77.6922 46.0674 76.0974 47.3349C74.4273 48.6623 72.289 47.8109 70.6288 46.4605C69.1425 45.2516 68.029 43.1165 68.0003 40.7491C67.976 38.7417 69.3005 37.311 70.5041 36.1655C71.2872 35.4203 72.26 35.9142 73.2094 35.7917Z" fill="#F3D0A7"/>
<path fill-rule="evenodd" clip-rule="evenodd" d="M54.2094 50.7917C55.4117 50.6365 56.6673 49.3922 57.6395 50.3737C58.7843 51.5296 59.0734 53.6694 58.9853 55.6136C58.871 58.1344 58.6922 61.0674 57.0974 62.3349C55.4273 63.6623 53.289 62.8109 51.6288 61.4605C50.1425 60.2516 49.029 58.1165 49.0003 55.7491C48.976 53.7417 50.3005 52.311 51.5041 51.1655C52.2872 50.4203 53.26 50.9142 54.2094 50.7917Z" fill="#F3D0A7"/>
<path fill-rule="evenodd" clip-rule="evenodd" d="M56.4918 15.6658C58.3355 15.3628 60.8162 14.0381 61.7673 16.2728C62.7295 18.5336 60.4443 20.7807 59.6965 23.1956C59.2302 24.7012 59.3151 26.6184 58.3059 27.4507C57.2255 28.3417 55.8641 28.0475 54.7334 27.2888C53.5991 26.5277 52.774 25.1615 52.3915 23.4821C51.9575 21.5768 51.7232 19.3957 52.5685 17.7843C53.442 16.1192 55.0274 15.9064 56.4918 15.6658Z" fill="#F3D0A7"/>
<path fill-rule="evenodd" clip-rule="evenodd" d="M77.4918 72.6658C79.3355 72.3628 81.8162 71.0381 82.7673 73.2728C83.7295 75.5336 81.4443 77.7807 80.6965 80.1956C80.2302 81.7012 80.3151 83.6184 79.3059 84.4507C78.2255 85.3417 76.8641 85.0475 75.7334 84.2888C74.5991 83.5277 73.774 82.1615 73.3915 80.4821C72.9575 78.5768 72.7232 76.3957 73.5685 74.7843C74.442 73.1192 76.0274 72.9064 77.4918 72.6658Z" fill="#F3D0A7"/>
<path fill-rule="evenodd" clip-rule="evenodd" d="M80.2602 92.2824C79.1371 92.4655 78.0689 92.8993 77.2148 93.686C76.4157 94.4222 76.0244 95.4673 75.6634 96.5169C75.2898 97.6033 74.7863 98.7362 75.0968 99.8442C75.4105 100.964 76.4942 101.554 77.3001 102.359C78.2618 103.319 78.9347 105.071 80.2602 104.998C81.6012 104.924 82.1055 103.093 83.0034 102.045C83.6743 101.263 84.5244 100.644 84.8466 99.6475C85.1716 98.6425 84.8967 97.5968 84.7826 96.5423C84.6341 95.1695 85.0605 93.4896 84.0807 92.5667C83.1069 91.6494 81.5534 92.0716 80.2602 92.2824Z" fill="#AD7463"/>
<path fill-rule="evenodd" clip-rule="evenodd" d="M83.2602 46.2824C82.1371 46.4655 81.0689 46.8993 80.2148 47.686C79.4157 48.4222 79.0244 49.4673 78.6634 50.5169C78.2898 51.6033 77.7863 52.7362 78.0968 53.8442C78.4105 54.964 79.4942 55.5543 80.3001 56.3587C81.2618 57.3186 81.9347 59.0706 83.2602 58.9978C84.6012 58.9241 85.1055 57.0929 86.0034 56.0454C86.6743 55.2628 87.5244 54.6444 87.8466 53.6475C88.1716 52.6425 87.8967 51.5968 87.7826 50.5423C87.6341 49.1695 88.0605 47.4896 87.0807 46.5667C86.1069 45.6494 84.5534 46.0716 83.2602 46.2824Z" fill="#AD7463"/>
<path fill-rule="evenodd" clip-rule="evenodd" d="M85.2602 63.2824C84.1371 63.4655 83.0689 63.8993 82.2148 64.686C81.4157 65.4222 81.0244 66.4673 80.6634 67.5169C80.2898 68.6033 79.7863 69.7362 80.0968 70.8442C80.4105 71.964 81.4942 72.5543 82.3001 73.3587C83.2618 74.3186 83.9347 76.0706 85.2602 75.9978C86.6012 75.9241 87.1055 74.0929 88.0034 73.0454C88.6743 72.2628 89.5244 71.6444 89.8466 70.6475C90.1716 69.6425 89.8967 68.5968 89.7826 67.5423C89.6341 66.1695 90.0605 64.4896 89.0807 63.5667C88.1069 62.6494 86.5534 63.0716 85.2602 63.2824Z" fill="#AD7463"/>
<path fill-rule="evenodd" clip-rule="evenodd" d="M37.2824 45.7398C37.4655 46.8629 37.8993 47.9311 38.686 48.7852C39.4222 49.5843 40.4673 49.9756 41.5169 50.3366C42.6033 50.7102 43.7362 51.2137 44.8442 50.9032C45.964 50.5895 46.5543 49.5059 47.3587 48.6999C48.3186 47.7382 50.0706 47.0653 49.9978 45.7398C49.9241 44.3988 48.0929 43.8945 47.0454 42.9966C46.2628 42.3257 45.6444 41.4756 44.6475 41.1534C43.6425 40.8284 42.5968 41.1033 41.5423 41.2174C40.1695 41.3659 38.4896 40.9395 37.5667 41.9193C36.6494 42.8931 37.0716 44.4466 37.2824 45.7398Z" fill="#AD7463"/>
<path fill-rule="evenodd" clip-rule="evenodd" d="M80.345 21.0018C82.2097 21.038 84.2649 21.774 84.8527 24.3533C85.4487 26.969 84.1404 29.4145 82.6477 31.1068C80.9273 33.0572 78.7515 35.0835 76.9335 33.3311C74.9488 31.4178 74.5627 27.3875 75.4527 24.1711C76.1906 21.5043 78.3722 20.9636 80.345 21.0018Z" fill="#737169"/>
<path fill-rule="evenodd" clip-rule="evenodd" d="M100.345 38.0018C102.21 38.038 104.265 38.774 104.853 41.3533C105.449 43.969 104.14 46.4145 102.648 48.1068C100.927 50.0572 98.7515 52.0835 96.9335 50.3311C94.9488 48.4178 94.5627 44.3875 95.4527 41.1711C96.1906 38.5043 98.3722 37.9636 100.345 38.0018Z" fill="#737169"/>
<path fill-rule="evenodd" clip-rule="evenodd" d="M55.345 63.0018C57.2097 63.038 59.2649 63.774 59.8527 66.3533C60.4487 68.969 59.1404 71.4145 57.6477 73.1068C55.9273 75.0572 53.7515 77.0835 51.9335 75.3311C49.9488 73.4178 49.5627 69.3875 50.4527 66.1711C51.1906 63.5043 53.3722 62.9636 55.345 63.0018Z" fill="#737169"/>
<path fill-rule="evenodd" clip-rule="evenodd" d="M72.345 85.0018C74.2097 85.038 76.2649 85.774 76.8527 88.3533C77.4487 90.969 76.1404 93.4145 74.6477 95.1068C72.9273 97.0572 70.7515 99.0835 68.9335 97.3311C66.9488 95.4178 66.5627 91.3875 67.4527 88.1711C68.1906 85.5043 70.3722 84.9636 72.345 85.0018Z" fill="#737169"/>
<path fill-rule="evenodd" clip-rule="evenodd" d="M48.9458 21.2938C49.7633 20.9975 50.699 20.7612 51.4134 21.4367C52.1293 22.1135 52.2828 23.562 52.6029 24.7515C52.9104 25.8944 53.1003 27.0325 53.2461 28.2479C53.4602 30.0317 54.5414 32.3304 53.6576 33.5411C52.7175 34.8291 51.2316 33.0296 49.9858 32.7146C49.3132 32.5445 48.6715 32.4263 48.0209 32.1158C47.3819 31.8109 46.737 31.5597 46.2167 30.9162C45.6248 30.1843 45.1674 29.2631 44.8555 28.2017C44.4587 26.8513 43.6398 25.2076 44.1773 23.9761C44.748 22.6685 46.1656 23.5315 47.1309 22.9885C47.81 22.6065 48.2416 21.5489 48.9458 21.2938Z" fill="#737169"/>
<path fill-rule="evenodd" clip-rule="evenodd" d="M66.5734 44.0043C68.0335 44.0912 68.9284 45.7642 69.9166 47.0317C70.8391 48.2151 71.9781 49.3591 71.9996 50.9647C72.0214 52.5854 71.0252 53.9105 70.024 55.024C69.0576 56.0987 67.9031 57.0207 66.5734 56.9996C65.2577 56.9788 64.0884 56.0734 63.2143 54.9163C62.3933 53.8294 62.0741 52.417 62.0145 50.9647C61.9511 49.4182 62.0707 47.839 62.8739 46.6126C63.7861 45.2199 65.0808 43.9155 66.5734 44.0043Z" fill="#737169"/>
<path fill-rule="evenodd" clip-rule="evenodd" d="M49.5247 93.1072C51.0296 92.5175 52.6116 94.4767 53.2934 96.1567C53.8652 97.5657 52.481 99.018 52.5558 100.576C52.6412 102.354 54.71 104.149 53.7433 105.523C52.805 106.856 50.9961 104.985 49.5247 104.882C48.2301 104.791 46.8558 105.818 45.7826 104.964C44.6077 104.029 43.6668 102.157 44.113 100.576C44.5486 99.0327 46.7462 99.6091 47.6438 98.3703C48.7357 96.8634 47.9252 93.7339 49.5247 93.1072Z" fill="#E88163"/>
<path fill-rule="evenodd" clip-rule="evenodd" d="M63.5247 76.1072C65.0296 75.5175 66.6116 77.4767 67.2934 79.1567C67.8652 80.5657 66.481 82.018 66.5558 83.5759C66.6412 85.3538 68.71 87.1492 67.7433 88.5225C66.805 89.8555 64.9961 87.9853 63.5247 87.882C62.2301 87.7911 60.8558 88.8177 59.7826 87.9638C58.6077 87.0289 57.6668 85.1565 58.113 83.5759C58.5486 82.0327 60.7462 82.6091 61.6438 81.3703C62.7357 79.8634 61.9252 76.7339 63.5247 76.1072Z" fill="#E88163"/>
<path fill-rule="evenodd" clip-rule="evenodd" d="M70.8271 62.102C72.2859 61.767 74.2354 62.2307 74.8557 63.8883C75.4786 65.5531 73.9177 67.1477 73.349 68.8416C73.1009 69.5807 72.7972 70.1883 72.5016 70.9005C71.9233 72.2932 72.0401 74.4461 70.8271 74.9158C69.6213 75.3828 68.5767 73.7996 67.6127 72.7939C66.5191 71.6529 64.8965 70.6001 65.0052 68.8416C65.1134 67.0903 67.0267 66.6515 68.0667 65.4476C69.0446 64.3155 69.5068 62.4053 70.8271 62.102Z" fill="#E88163"/>
<path fill-rule="evenodd" clip-rule="evenodd" d="M60.8271 30.102C62.2859 29.767 64.2354 30.2307 64.8557 31.8883C65.4786 33.5531 63.9177 35.1477 63.349 36.8416C63.1009 37.5807 62.7972 38.1883 62.5016 38.9005C61.9233 40.2932 62.0401 42.4461 60.8271 42.9158C59.6213 43.3828 58.5767 41.7996 57.6127 40.7939C56.5191 39.6529 54.8965 38.6001 55.0052 36.8416C55.1134 35.0903 57.0267 34.6515 58.0667 33.4476C59.0446 32.3155 59.5068 30.4053 60.8271 30.102Z" fill="#E88163"/>
<path fill-rule="evenodd" clip-rule="evenodd" d="M103.993 57.5378C105.205 57.115 106.201 54.2807 107.352 55.1726C108.734 56.2427 110.251 59.1522 109.965 62.162C109.672 65.2382 107.61 65.5284 106.241 66.8398C105.516 67.5344 104.766 68.2974 103.993 67.8824C103.341 67.5319 103.22 65.7224 102.667 64.9207C101.832 63.7103 100.328 64.197 100.047 62.162C99.7742 60.1847 100.737 58.1893 101.599 57.1798C102.324 56.3304 103.173 57.824 103.993 57.5378Z" fill="#E88163"/>
<path fill-rule="evenodd" clip-rule="evenodd" d="M20.9933 48.5378C22.2052 48.115 23.2007 45.2807 24.3524 46.1726C25.7343 47.2427 27.2514 50.1522 26.9648 53.162C26.6719 56.2382 24.6105 56.5284 23.2414 57.8398C22.5164 58.5344 21.7661 59.2974 20.9933 58.8824C20.3406 58.5319 20.2205 56.7224 19.6674 55.9207C18.8325 54.7103 17.3281 55.197 17.0472 53.162C16.7742 51.1847 17.7374 49.1893 18.5988 48.1798C19.3236 47.3304 20.1729 48.824 20.9933 48.5378Z" fill="#E88163"/>
<path fill-rule="evenodd" clip-rule="evenodd" d="M50.3628 77.6076C50.3826 78.3398 50.1462 79.0775 49.6918 79.7915C49.2618 80.467 48.5345 80.9767 47.8567 81.5454C46.9331 82.3203 46.2784 83.476 45.0153 83.7151C43.7517 83.9542 42.9284 83.0541 41.87 82.6786C40.558 82.2131 38.4543 82.3442 38.0797 81.2547C37.7073 80.1714 39.5469 79.088 40.2433 77.9471C40.8943 76.8806 40.9076 75.6562 42.021 74.7977C43.2326 73.8634 44.9201 73.07 46.4582 73.1546C47.964 73.2375 48.7825 74.3172 49.5682 75.2133C50.162 75.8904 50.3392 76.7318 50.3628 77.6076Z" fill="#AD7463"/>
<path fill-rule="evenodd" clip-rule="evenodd" d="M36.4363 52.1226C35.9411 51.0981 35.2212 50.1975 34.2239 49.6027C33.2907 49.0461 32.1775 48.9685 31.0686 48.9212C29.9208 48.8722 28.6914 48.7121 27.7176 49.3251C26.7334 49.9446 26.476 51.1514 25.9343 52.153C25.2878 53.3481 23.7998 54.4919 24.2469 55.7419C24.6992 57.0064 26.5982 56.9686 27.8579 57.5312C28.7992 57.9516 29.634 58.5905 30.6813 58.6157C31.7373 58.6411 32.6615 58.0799 33.6399 57.6704C34.9136 57.1374 36.6454 57.068 37.2512 55.866C37.8534 54.6713 37.0065 53.3023 36.4363 52.1226Z" fill="#AD7463"/>
<path fill-rule="evenodd" clip-rule="evenodd" d="M23.1231 68.6169C22.0986 69.1121 21.198 69.832 20.6032 70.8293C20.0466 71.7625 19.969 72.8758 19.9217 73.9846C19.8727 75.1324 19.7126 76.3618 20.3256 77.3357C20.945 78.3198 22.1519 78.5772 23.1535 79.119C24.3486 79.7654 25.4924 81.2534 26.7423 80.8063C28.0069 80.354 27.9691 78.4551 28.5317 77.1953C28.9521 76.2541 29.5909 75.4192 29.6162 74.3719C29.6416 73.3159 29.0804 72.3918 28.6709 71.4133C28.1379 70.1396 28.0685 68.4079 26.8665 67.802C25.6718 67.1998 24.3028 68.0467 23.1231 68.6169Z" fill="#AD7463"/>
<path d="M121.026 121.026C118.868 123.184 115.37 123.184 113.212 121.026L94.8223 102.636C94.1315 101.946 94.1315 100.826 94.8223 100.135L100.136 94.8218C100.826 94.131 101.946 94.131 102.637 94.8218L121.026 113.211C123.185 115.369 123.185 118.868 121.026 121.026Z" fill="#AE7463"/>
<path d="M100.077 94.8814L94.1687 88.9736C93.4263 89.9334 92.6223 90.8615 91.7419 91.7419C90.8625 92.6223 89.9344 93.4253 88.9746 94.1688L94.8814 100.076L100.077 94.8814Z" fill="#AAA599"/>
<circle cx="70.9946" cy="70.9941" r="22" fill="white" fill-opacity="0.3"/>
<path d="M91.6509 50.5621C80.272 39.1823 61.7973 39.1406 50.4691 50.4698C39.1408 61.798 39.1825 80.2718 50.5614 91.6506C61.9402 103.029 80.414 103.071 91.7422 91.7429C103.071 80.4137 103.03 61.94 91.6509 50.5621ZM86.0478 86.0466C82.0805 90.0139 76.7881 92.1906 71.1463 92.1767C65.5075 92.1628 60.2102 89.9632 56.229 85.983C47.9906 77.7437 47.9618 64.3678 56.1644 56.1642C60.1308 52.1979 65.4232 50.0212 71.0669 50.0351C76.7047 50.048 82.0031 52.2485 85.9833 56.2287C89.9655 60.2109 92.165 65.5103 92.1779 71.15C92.1908 76.7908 90.0131 82.0822 86.0478 86.0466Z" fill="#AAA599"/>
</svg>
