<svg width="124" height="124" viewBox="0 0 124 124" fill="none" xmlns="http://www.w3.org/2000/svg">
<rect width="124" height="124" rx="6" fill="#EAF1FF"/>
<path d="M71.083 59.042H122.984V74.535H85.5795C83.642 74.535 81.8187 73.6139 80.6693 72.0536L71.083 59.042Z" fill="#829DCC"/>
<path d="M122.984 74.536H85.5798C83.6423 74.536 81.8189 73.6148 80.6695 72.0535L70.7736 58.6211C69.6242 57.0607 67.8018 56.1396 65.8643 56.1396H55.8651C54.7802 56.1396 53.7152 55.8498 52.7792 55.3009L35.309 45.0516C34.373 44.5027 33.3079 44.2129 32.2231 44.2129H4.06578C2.38139 44.2129 1.0166 45.5777 1.0166 47.2621V58.4424H32.2231C33.3079 58.4424 34.373 58.7322 35.309 59.2811L52.7792 69.5304C53.7142 70.0793 54.7802 70.3691 55.8651 70.3691H61.7987C63.7362 70.3691 65.5596 71.2902 66.708 72.8506L76.6039 86.284C78.0002 88.4998 78.0002 88.7655 81.5142 88.7655H122.984V74.536Z" fill="#F3D0A7"/>
<path d="M122.984 88.7654H80.4869C79.1945 88.7654 77.9796 88.151 77.2134 87.1108L66.0985 72.0237C65.3323 70.9835 64.1164 70.3691 62.825 70.3691H55.3123C54.5897 70.3691 53.879 70.1766 53.2557 69.8103L34.8325 59.0012C34.2082 58.6359 33.4985 58.4424 32.7749 58.4424H1.0166V77.7539H30.7421C31.4657 77.7539 32.1764 77.9474 32.7997 78.3127L51.2219 89.1218C51.8462 89.488 52.5559 89.6806 53.2795 89.6806H60.7913C60.7913 89.6806 64.0002 90.9998 64.0648 91.3352L75.1796 106.422C75.9458 107.463 77.1608 108.077 78.4531 108.077H122.984V88.7654Z" fill="#F3B8A7"/>
<path d="M1.0166 97.9131H27.6582C28.6299 97.9131 29.5878 98.1444 30.4513 98.59L49.8432 108.585C50.7077 109.03 51.6656 109.262 52.6373 109.262H56.0587C57.7917 109.262 59.4423 110 60.5987 111.289L71.0832 122.983H6.00024C1.0166 122.983 1.0166 119.684 1.0166 118V97.9131Z" fill="#AE7463"/>
<path d="M79.4814 108.077C77.5439 108.077 75.7205 107.156 74.5711 105.596L64.6752 92.1621C63.5258 90.6018 61.7034 89.6806 59.7659 89.6806H53.8323C52.7475 89.6806 51.6824 89.3918 50.7464 88.8419L33.2762 78.5926C32.3412 78.0427 31.2752 77.7539 30.1903 77.7539H1.0166V97.913H27.6582C28.6299 97.913 29.5878 98.1453 30.4513 98.59L49.8432 108.585C50.7077 109.03 51.6656 109.262 52.6373 109.262H56.0587C57.7917 109.262 59.4424 110 60.5987 111.289L71.0832 122.983H116.885C120.253 122.983 122.984 120.253 122.984 116.885V108.077H79.4814Z" fill="#E88163"/>
<path d="M121.031 121.032C118.873 123.189 115.374 123.189 113.217 121.032L94.8272 102.642C94.1364 101.951 94.1364 100.832 94.8272 100.141L100.14 94.8277C100.831 94.1369 101.951 94.1369 102.642 94.8277L121.031 113.217C123.19 115.375 123.19 118.874 121.031 121.032Z" fill="#AE7463"/>
<path d="M100.082 94.8873L94.1741 88.9795C93.4317 89.9393 92.6277 90.8674 91.7473 91.7478C90.8679 92.6282 89.9398 93.4312 88.98 94.1746L94.8868 100.081L100.082 94.8873Z" fill="#AAA599"/>
<circle cx="71" cy="71" r="22" fill="white" fill-opacity="0.3"/>
<path d="M91.6562 50.568C80.2774 39.1881 61.8027 39.1465 50.4744 50.4757C39.1462 61.8039 39.1879 80.2776 50.5667 91.6565C61.9456 103.035 80.4193 103.077 91.7476 91.7488C103.077 80.4196 103.035 61.9458 91.6562 50.568ZM86.0532 86.0524C82.0859 90.0197 76.7935 92.1964 71.1517 92.1825C65.5129 92.1686 60.2155 89.9691 56.2343 85.9889C47.996 77.7496 47.9672 64.3737 56.1698 56.1701C60.1361 52.2037 65.4285 50.027 71.0723 50.0409C76.7101 50.0538 82.0084 52.2544 85.9887 56.2346C89.9709 60.2168 92.1704 65.5161 92.1833 71.1559C92.1962 76.7967 90.0185 82.0881 86.0532 86.0524Z" fill="#AAA599"/>
</svg>
