<svg width="25" height="25" viewBox="0 0 25 25" fill="none" xmlns="http://www.w3.org/2000/svg">
<rect width="25" height="25" fill="white" fill-opacity="0.01"/>
<path fill-rule="evenodd" clip-rule="evenodd" d="M12.5002 1.75C12.9145 1.75 13.2502 2.08578 13.2502 2.5V14.0227L16.97 10.303C17.2628 10.0101 17.7377 10.0101 18.0305 10.303C18.3235 10.5959 18.3235 11.0708 18.0305 11.3637L13.0306 16.3637C12.7377 16.6566 12.2628 16.6566 11.9699 16.3637L6.96991 11.3637C6.67701 11.0708 6.67701 10.5959 6.96991 10.303C7.26281 10.0101 7.73768 10.0101 8.03058 10.303L11.7502 14.0227V2.5C11.7502 2.08578 12.086 1.75 12.5002 1.75ZM4.16683 16.6667C4.62706 16.6667 5.00016 17.0399 5.00016 17.5V20C5.00016 20.9232 5.74291 21.6667 6.66075 21.6667H18.3355C19.255 21.6667 20.0002 20.9214 20.0002 20V17.5C20.0002 17.0399 20.3733 16.6667 20.8335 16.6667C21.2937 16.6667 21.6668 17.0399 21.6668 17.5V20C21.6668 21.8402 20.1772 23.3334 18.3355 23.3334H6.66075C4.81715 23.3334 3.3335 21.8384 3.3335 20V17.5C3.3335 17.0399 3.7066 16.6667 4.16683 16.6667Z" fill="#60646C"/>
</svg>
