<svg width="367" height="182" viewBox="0 0 367 182" fill="none" xmlns="http://www.w3.org/2000/svg">
<g clip-path="url(#clip0_1046_9916)">
<path d="M141.068 50L213 157H-43L141.068 50Z" fill="url(#paint0_linear_1046_9916)"/>
<path d="M258.349 16L330 121H75L258.349 16Z" fill="url(#paint1_linear_1046_9916)"/>
<path fill-rule="evenodd" clip-rule="evenodd" d="M263.545 81H219.455C218.008 81 216.621 80.4205 215.598 79.3891C214.575 78.3576 214 76.9587 214 75.5C214 74.0413 214.575 72.6424 215.598 71.6109C216.621 70.5795 218.008 70 219.455 70H263.545C264.992 70 266.379 70.5795 267.402 71.6109C268.425 72.6424 269 74.0413 269 75.5C269 76.9587 268.425 78.3576 267.402 79.3891C266.379 80.4205 264.992 81 263.545 81Z" fill="#E87E61"/>
<path fill-rule="evenodd" clip-rule="evenodd" d="M252.171 87.0546C247.918 87.05 243.823 88.6165 240.72 91.4352C238.322 89.272 235.325 87.8341 232.095 87.298C228.866 86.7619 225.545 87.1509 222.541 88.4173C219.536 89.6837 216.978 91.7723 215.181 94.427C213.384 97.0817 212.426 100.187 212.424 103.362V119.573L185.349 134.745C183.957 135.507 182.312 135.708 180.768 135.304C179.224 134.9 177.907 133.924 177.1 132.587C176.322 131.236 176.12 129.644 176.536 128.151C176.952 126.658 177.953 125.381 179.327 124.593L199.126 113.498C201.045 112.426 202.727 110.998 204.076 109.297C205.425 107.595 206.415 105.653 206.99 103.58C207.564 101.508 207.712 99.3459 207.424 97.2182C207.137 95.0905 206.419 93.0385 205.313 91.1794C204.207 89.3203 202.734 87.6905 200.978 86.3831C199.222 85.0756 197.217 84.1162 195.078 83.5595C192.939 83.0028 190.708 82.8597 188.513 83.1385C186.317 83.4172 184.199 84.1123 182.28 85.1841L159.594 97.8621C158.255 94.2489 155.644 91.2092 152.219 89.2783C148.795 87.3473 144.778 86.6489 140.874 87.3061C136.971 87.9632 133.432 89.9337 130.88 92.8707C128.329 95.8077 126.928 99.5227 126.926 103.362V125.552C126.926 127.117 126.284 128.617 125.142 129.724C124.001 130.83 122.452 131.452 120.837 131.452C119.223 131.452 117.674 130.83 116.532 129.724C115.391 128.617 114.749 127.117 114.749 125.552V93.4176C114.79 92.71 114.681 92.0017 114.429 91.3363C114.178 90.6708 113.789 90.062 113.286 89.5472C112.783 89.0323 112.178 88.6223 111.506 88.342C110.834 88.0617 110.11 87.9172 109.379 87.9172C108.647 87.9172 107.924 88.0617 107.252 88.342C106.58 88.6223 105.974 89.0323 105.472 89.5472C104.969 90.062 104.58 90.6708 104.328 91.3363C104.077 92.0017 103.968 92.71 104.008 93.4176V125.552C104.008 129.877 105.781 134.025 108.937 137.083C112.093 140.141 116.374 141.859 120.837 141.859C125.301 141.859 129.581 140.141 132.737 137.083C135.894 134.025 137.667 129.877 137.667 125.552V103.362C137.624 102.562 137.749 101.763 138.035 101.012C138.321 100.261 138.762 99.5739 139.331 98.9933C139.9 98.4126 140.585 97.9503 141.344 97.6343C142.103 97.3183 142.92 97.1554 143.747 97.1554C144.573 97.1554 145.39 97.3183 146.149 97.6343C146.909 97.9503 147.593 98.4126 148.162 98.9933C148.731 99.5739 149.172 100.261 149.458 101.012C149.744 101.763 149.869 102.562 149.826 103.362V135.512C149.826 136.895 150.393 138.22 151.402 139.198C152.411 140.175 153.779 140.724 155.205 140.724C156.632 140.724 158 140.175 159.009 139.198C160.017 138.22 160.584 136.895 160.584 135.512V109.341L187.659 94.185C189.051 93.4231 190.697 93.2224 192.24 93.6262C193.784 94.03 195.101 95.006 195.909 96.3433C196.686 97.6941 196.889 99.2858 196.473 100.779C196.057 102.272 195.055 103.549 193.681 104.337L173.899 115.56C171.014 117.172 168.688 119.577 167.214 122.47C165.74 125.364 165.186 128.616 165.62 131.815C166.055 135.014 167.459 138.016 169.655 140.442C171.851 142.867 174.741 144.607 177.958 145.44C179.384 145.807 180.854 145.995 182.33 146C185.28 146.001 188.177 145.245 190.728 143.81L212.424 131.547V135.464C212.424 136.847 212.991 138.172 214 139.15C215.008 140.127 216.377 140.676 217.803 140.676C219.23 140.676 220.598 140.127 221.606 139.15C222.615 138.172 223.182 136.847 223.182 135.464V103.362C223.139 102.562 223.264 101.763 223.55 101.012C223.836 100.261 224.277 99.5739 224.846 98.9933C225.415 98.4126 226.1 97.9503 226.859 97.6343C227.618 97.3183 228.436 97.1554 229.262 97.1554C230.088 97.1554 230.905 97.3183 231.665 97.6343C232.424 97.9503 233.109 98.4126 233.677 98.9933C234.246 99.5739 234.687 100.261 234.973 101.012C235.259 101.763 235.385 102.562 235.342 103.362V135.512C235.418 136.843 236.017 138.094 237.016 139.01C238.014 139.925 239.337 140.436 240.712 140.436C242.087 140.436 243.41 139.925 244.409 139.01C245.408 138.094 246.007 136.843 246.083 135.512V103.362C246.083 101.797 246.724 100.297 247.866 99.1903C249.008 98.0839 250.556 97.4624 252.171 97.4624C253.786 97.4624 255.334 98.0839 256.476 99.1903C257.618 100.297 258.259 101.797 258.259 103.362V135.512C258.335 136.843 258.934 138.094 259.933 139.01C260.932 139.925 262.255 140.436 263.63 140.436C265.005 140.436 266.327 139.925 267.326 139.01C268.325 138.094 268.924 136.843 269 135.512V103.362C268.996 99.0381 267.221 94.8928 264.066 91.8356C260.911 88.7783 256.633 87.0589 252.171 87.0546Z" fill="white"/>
<path d="M104.824 162H103.864V153.996H104.86V160.248L109.468 153.996H110.488V162H109.492V155.616L104.824 162ZM119.032 162H118.036V158.328H113.356V162H112.36V153.996H113.356V157.44H118.036V153.996H119.032V162ZM124.695 162.144C122.391 162.144 120.579 160.464 120.579 158.004C120.579 155.544 122.391 153.864 124.695 153.864C126.111 153.864 127.095 154.548 127.731 155.448L126.891 155.916C126.435 155.244 125.607 154.752 124.695 154.752C122.943 154.752 121.611 156.096 121.611 158.004C121.611 159.9 122.943 161.256 124.695 161.256C125.607 161.256 126.435 160.776 126.891 160.092L127.743 160.56C127.071 161.472 126.111 162.144 124.695 162.144ZM131.988 162H130.992V154.884H128.46V153.996H134.532V154.884H131.988V162ZM136.816 162H135.856V153.996H136.852V160.248L141.46 153.996H142.48V162H141.484V155.616L136.816 162ZM147.328 162H146.332V154.884H143.8V153.996H149.872V154.884H147.328V162ZM152 162.144C151.328 162.144 150.728 161.868 150.44 161.508L150.86 160.716C151.148 161.016 151.508 161.256 151.952 161.256C152.588 161.256 152.852 160.944 153.296 160.116L153.44 159.84L150.368 153.996H151.508L154.016 158.952L156.524 153.996H157.664L154.172 160.584C153.668 161.532 153.14 162.144 152 162.144ZM161.683 162H160.687V154.884H158.155V153.996H164.227V154.884H161.683V162ZM169.641 162H168.645V153.996H173.889V154.884H169.641V162ZM180.487 162H175.243V153.996H180.487V154.884H176.239V157.464H180.403V158.352H176.239V161.112H180.487V162ZM185.723 162.144C183.347 162.144 181.751 160.368 181.751 158.004C181.751 155.64 183.347 153.864 185.723 153.864C188.087 153.864 189.695 155.64 189.695 158.004C189.695 160.368 188.087 162.144 185.723 162.144ZM185.723 161.256C187.511 161.256 188.663 159.864 188.663 158.004C188.663 156.132 187.511 154.752 185.723 154.752C183.923 154.752 182.783 156.132 182.783 158.004C182.783 159.864 183.923 161.256 185.723 161.256ZM193.898 162H192.902V154.884H190.37V153.996H196.442V154.884H193.898V162ZM203.01 162H197.766V153.996H203.01V154.884H198.762V157.464H202.926V158.352H198.762V161.112H203.01V162ZM211.33 162H210.13L207.574 158.592L205.018 162H203.806L206.926 157.896L203.986 153.996H205.198L207.574 157.2L209.938 153.996H211.15L208.222 157.884L211.33 162ZM219.098 162H218.102V158.328H213.422V162H212.426V153.996H213.422V157.44H218.102V153.996H219.098V162ZM224.617 162.144C222.241 162.144 220.645 160.368 220.645 158.004C220.645 155.64 222.241 153.864 224.617 153.864C226.981 153.864 228.589 155.64 228.589 158.004C228.589 160.368 226.981 162.144 224.617 162.144ZM224.617 161.256C226.405 161.256 227.557 159.864 227.557 158.004C227.557 156.132 226.405 154.752 224.617 154.752C222.817 154.752 221.677 156.132 221.677 158.004C221.677 159.864 222.817 161.256 224.617 161.256ZM229.148 162.144V161.256C230.108 161.256 230.648 160.728 230.984 158.016L231.476 153.996H236.372V162H235.376V154.884H232.364L231.968 158.088C231.536 161.604 230.576 162.144 229.148 162.144ZM241.891 162.144C239.515 162.144 237.919 160.368 237.919 158.004C237.919 155.64 239.515 153.864 241.891 153.864C244.255 153.864 245.863 155.64 245.863 158.004C245.863 160.368 244.255 162.144 241.891 162.144ZM241.891 161.256C243.679 161.256 244.831 159.864 244.831 158.004C244.831 156.132 243.679 154.752 241.891 154.752C240.091 154.752 238.951 156.132 238.951 158.004C238.951 159.864 240.091 161.256 241.891 161.256ZM248.414 162H247.418V153.996H252.662V154.884H248.414V162ZM254.976 162H254.016V153.996H255.012V160.248L259.62 153.996H260.64V162H259.644V155.616L254.976 162ZM263.472 162H262.512V153.996H263.508V160.248L268.116 153.996H269.136V162H268.14V155.616L263.472 162ZM267.924 152.484C267.444 153.132 266.688 153.54 265.824 153.54C264.972 153.54 264.204 153.132 263.712 152.484L264.156 152.1C264.54 152.628 265.116 152.964 265.824 152.964C266.52 152.964 267.108 152.64 267.48 152.1L267.924 152.484Z" fill="white"/>
</g>
<defs>
<linearGradient id="paint0_linear_1046_9916" x1="85" y1="50" x2="85" y2="157" gradientUnits="userSpaceOnUse">
<stop stop-color="#E3DED2"/>
<stop offset="0.625" stop-color="#DBD6CB" stop-opacity="0"/>
</linearGradient>
<linearGradient id="paint1_linear_1046_9916" x1="202.5" y1="16" x2="202.5" y2="121" gradientUnits="userSpaceOnUse">
<stop stop-color="#E3DED2"/>
<stop offset="0.625" stop-color="#DBD6CB" stop-opacity="0"/>
</linearGradient>
<clipPath id="clip0_1046_9916">
<rect width="367" height="182" fill="white"/>
</clipPath>
</defs>
</svg>
