<svg width="124" height="124" viewBox="0 0 124 124" fill="none" xmlns="http://www.w3.org/2000/svg">
<g clip-path="url(#clip0_1032_9747)">
<rect width="124" height="124" rx="6" fill="#EAF1FF"/>
<ellipse cx="42.1244" cy="96.2104" rx="14" ry="8" transform="rotate(30 42.1244 96.2104)" fill="#B9BBC6"/>
<rect x="70" y="19.9282" width="28" height="80" transform="rotate(30 70 19.9282)" fill="#B9BBC6"/>
<ellipse cx="82.1244" cy="26.9282" rx="14" ry="8" transform="rotate(30 82.1244 26.9282)" fill="#D9D9D9"/>
<path d="M121.026 121.026C118.868 123.184 115.369 123.184 113.212 121.026L94.8221 102.636C94.1313 101.946 94.1313 100.826 94.8221 100.135L100.135 94.8218C100.826 94.131 101.946 94.131 102.637 94.8218L121.026 113.211C123.185 115.369 123.185 118.868 121.026 121.026Z" fill="#AE7463"/>
<path d="M100.077 94.8814L94.169 88.9736C93.4266 89.9334 92.6226 90.8615 91.7422 91.7419C90.8628 92.6223 89.9347 93.4253 88.9749 94.1688L94.8817 100.076L100.077 94.8814Z" fill="#AAA599"/>
<circle cx="70.9948" cy="70.9946" r="22" fill="white" fill-opacity="0.3"/>
<path d="M91.6509 50.5621C80.272 39.1823 61.7973 39.1406 50.4691 50.4698C39.1408 61.798 39.1825 80.2718 50.5614 91.6506C61.9402 103.029 80.414 103.071 91.7422 91.7429C103.071 80.4137 103.03 61.94 91.6509 50.5621ZM86.0478 86.0466C82.0805 90.0139 76.7881 92.1906 71.1463 92.1767C65.5075 92.1628 60.2102 89.9632 56.229 85.983C47.9906 77.7437 47.9618 64.3678 56.1644 56.1642C60.1308 52.1979 65.4232 50.0212 71.0669 50.0351C76.7047 50.048 82.0031 52.2485 85.9833 56.2287C89.9655 60.2109 92.165 65.5103 92.1779 71.15C92.1908 76.7908 90.0131 82.0822 86.0478 86.0466Z" fill="#AAA599"/>
<rect width="124" height="124" rx="6" fill="#EAF1FF"/>
<ellipse cx="39.9734" cy="100.639" rx="18.916" ry="8.8918" transform="rotate(30 39.9734 100.639)" fill="#A5A7B4"/>
<rect x="68" y="13.9282" width="38" height="90" transform="rotate(30 68 13.9282)" fill="#A5A7B4"/>
<path d="M59.5001 28.6506L60 27.7847C60 27.7847 63.8113 38.7346 69.7224 44.9449C75.8317 51.3634 86.909 57.1769 86.909 57.1769L86.409 58.0429C86.409 58.0429 74.2398 51.2913 69.2224 45.8109C62.4952 38.4629 59.5001 28.6506 59.5001 28.6506Z" fill="#737169"/>
<path d="M58.5001 30.3825L59 29.5166C59 29.5166 62.8113 40.4665 68.7224 46.6769C74.8317 53.0954 85.909 58.9088 85.909 58.9088L85.409 59.7748C85.409 59.7748 73.2398 53.0233 68.2224 47.5429C61.4952 40.1948 58.5001 30.3825 58.5001 30.3825Z" fill="#737169"/>
<path d="M51.5001 42.507L52 41.6411C52 41.6411 55.8113 52.591 61.7224 58.8014C67.8317 65.2199 78.909 71.0333 78.909 71.0333L78.409 71.8993C78.409 71.8993 66.2398 65.1478 61.2224 59.6674C54.4952 52.3193 51.5001 42.507 51.5001 42.507Z" fill="#737169"/>
<path d="M66.409 92.6841L66.909 91.8181C66.909 91.8181 55.6506 85.3181 59.6506 78.3899C63.6471 71.4677 74.9055 77.9677 74.9055 77.9677L75.4055 77.1017C75.4055 77.1017 63.2811 70.1017 58.7846 77.8899C54.2881 85.678 66.409 92.6841 66.409 92.6841Z" fill="#737169"/>
<path d="M68.4091 89.2197L69.409 87.4878C69.409 87.4878 65.945 85.4877 67.445 82.8896C68.945 80.2915 72.4091 82.2916 72.4091 82.2916L73.4091 80.5595C73.4091 80.5595 68.2129 77.5595 65.7129 81.8896C63.2129 86.2197 68.4091 89.2197 68.4091 89.2197Z" fill="#737169"/>
<path d="M55.5 35.579L57 32.981C57 32.981 60.8113 43.9309 66.7224 50.1412C72.8317 56.5597 83.909 62.3732 83.909 62.3732L82.409 64.9713C82.409 64.9713 70.2398 58.2197 65.2224 52.7393C58.4952 45.3912 55.5 35.579 55.5 35.579Z" fill="#737169"/>
<path d="M29 81.4782L31.4998 77.1484C31.4998 77.1484 35.3113 88.098 41.2224 94.3083C47.3317 100.727 58.409 106.54 58.409 106.54L55.909 110.87C55.909 110.87 43.7398 104.119 38.7224 98.6384C31.9952 91.2904 29 81.4782 29 81.4782Z" fill="#737169"/>
<path d="M62.5 23.4545L68 13.9282L100.909 32.9282L89.409 52.8468C89.409 52.8468 79.0167 46.8468 73.0885 41.1148C67.1603 35.3827 62.5 23.4545 62.5 23.4545Z" fill="#737169"/>
<ellipse cx="84.4545" cy="23.4282" rx="19" ry="8" transform="rotate(30 84.4545 23.4282)" fill="#B9BBC6"/>
<path d="M45.5 52.8995L48 48.5693C48 48.5693 64.3695 63.2165 62.0526 68.2296C57.6275 77.804 49.1244 74.6219 46.3564 83.4161C44.6781 88.7484 62.409 99.6123 62.409 99.6123L59.909 103.942C59.909 103.942 36.6646 90.2029 42.0263 80.9161C49.0263 68.7918 56.9545 71.0597 57.2224 66.5956C57.4904 62.1315 45.5 52.8995 45.5 52.8995Z" fill="#737169"/>
<path d="M121.026 121.026C118.868 123.184 115.369 123.184 113.212 121.026L94.8221 102.636C94.1313 101.946 94.1313 100.826 94.8221 100.135L100.135 94.8218C100.826 94.131 101.946 94.131 102.637 94.8218L121.026 113.211C123.185 115.369 123.185 118.868 121.026 121.026Z" fill="#AE7463"/>
<path d="M100.077 94.8814L94.169 88.9736C93.4266 89.9334 92.6226 90.8615 91.7422 91.7419C90.8628 92.6223 89.9347 93.4253 88.9749 94.1688L94.8817 100.076L100.077 94.8814Z" fill="#AAA599"/>
<circle cx="70.9948" cy="70.9946" r="22" fill="white" fill-opacity="0.3"/>
<path d="M91.6509 50.5621C80.272 39.1823 61.7973 39.1406 50.4691 50.4698C39.1408 61.798 39.1825 80.2718 50.5614 91.6506C61.9402 103.029 80.414 103.071 91.7422 91.7429C103.071 80.4137 103.03 61.94 91.6509 50.5621ZM86.0478 86.0466C82.0805 90.0139 76.7881 92.1906 71.1463 92.1767C65.5075 92.1628 60.2102 89.9632 56.229 85.983C47.9906 77.7437 47.9618 64.3678 56.1644 56.1642C60.1308 52.1979 65.4232 50.0212 71.0669 50.0351C76.7047 50.048 82.0031 52.2485 85.9833 56.2287C89.9655 60.2109 92.165 65.5103 92.1779 71.15C92.1908 76.7908 90.0131 82.0822 86.0478 86.0466Z" fill="#AAA599"/>
</g>
<defs>
<clipPath id="clip0_1032_9747">
<rect width="124" height="124" rx="6" fill="white"/>
</clipPath>
</defs>
</svg>
