<svg width="124" height="124" viewBox="0 0 124 124" fill="none" xmlns="http://www.w3.org/2000/svg">
<g clip-path="url(#clip0_1031_9707)">
<rect width="124" height="124" rx="6" fill="#EAF1FF"/>
<path fill-rule="evenodd" clip-rule="evenodd" d="M27.5734 35.0043C29.0335 35.0912 29.9284 36.7642 30.9166 38.0317C31.8391 39.2151 32.9781 40.3591 32.9996 41.9647C33.0214 43.5854 32.0252 44.9105 31.024 46.024C30.0576 47.0987 28.9031 48.0207 27.5734 47.9996C26.2577 47.9788 25.0884 47.0734 24.2143 45.9163C23.3933 44.8294 23.0741 43.417 23.0145 41.9647C22.9511 40.4182 23.0707 38.839 23.8739 37.6126C24.7861 36.2199 26.0808 34.9155 27.5734 35.0043Z" fill="#737169"/>
<path fill-rule="evenodd" clip-rule="evenodd" d="M42.345 86.0018C44.2097 86.038 46.2649 86.774 46.8527 89.3533C47.4487 91.969 46.1404 94.4145 44.6477 96.1068C42.9273 98.0572 40.7515 100.083 38.9335 98.3311C36.9488 96.4178 36.5627 92.3875 37.4527 89.1711C38.1906 86.5043 40.3722 85.9636 42.345 86.0018Z" fill="#737169"/>
<path fill-rule="evenodd" clip-rule="evenodd" d="M100.345 73.0018C102.21 73.038 104.265 73.774 104.853 76.3533C105.449 78.969 104.14 81.4145 102.648 83.1068C100.927 85.0572 98.7515 87.0835 96.9335 85.3311C94.9488 83.4178 94.5627 79.3875 95.4527 76.1711C96.1906 73.5043 98.3722 72.9636 100.345 73.0018Z" fill="#737169"/>
<path fill-rule="evenodd" clip-rule="evenodd" d="M38.5247 22.1072C40.0296 21.5175 41.6116 23.4767 42.2934 25.1567C42.8652 26.5657 41.481 28.018 41.5558 29.5759C41.6412 31.3538 43.71 33.1492 42.7433 34.5225C41.805 35.8555 39.9961 33.9853 38.5247 33.882C37.2301 33.7911 35.8558 34.8177 34.7826 33.9638C33.6077 33.0289 32.6668 31.1565 33.113 29.5759C33.5486 28.0327 35.7462 28.6091 36.6438 27.3703C37.7357 25.8634 36.9252 22.7339 38.5247 22.1072Z" fill="#E88163"/>
<path fill-rule="evenodd" clip-rule="evenodd" d="M42.5247 56.1072C44.0296 55.5175 45.6116 57.4767 46.2934 59.1567C46.8652 60.5657 45.481 62.018 45.5558 63.5759C45.6412 65.3538 47.71 67.1492 46.7433 68.5225C45.805 69.8555 43.9961 67.9853 42.5247 67.882C41.2301 67.7911 39.8558 68.8177 38.7826 67.9638C37.6077 67.0289 36.6668 65.1565 37.113 63.5759C37.5486 62.0327 39.7462 62.6091 40.6438 61.3703C41.7357 59.8634 40.9252 56.7339 42.5247 56.1072Z" fill="#E88163"/>
<path fill-rule="evenodd" clip-rule="evenodd" d="M90.8271 28.102C92.2859 27.767 94.2354 28.2307 94.8557 29.8883C95.4786 31.5531 93.9177 33.1477 93.349 34.8416C93.1009 35.5807 92.7972 36.1883 92.5016 36.9005C91.9233 38.2932 92.0401 40.4461 90.8271 40.9158C89.6213 41.3828 88.5767 39.7996 87.6127 38.7939C86.5191 37.6529 84.8965 36.6001 85.0052 34.8416C85.1134 33.0903 87.0267 32.6515 88.0667 31.4476C89.0446 30.3155 89.5068 28.4053 90.8271 28.102Z" fill="#E88163"/>
<path fill-rule="evenodd" clip-rule="evenodd" d="M31.4918 79.6658C33.3355 79.3628 35.8162 78.0381 36.7673 80.2728C37.7295 82.5336 35.4443 84.7807 34.6965 87.1956C34.2302 88.7012 34.3151 90.6184 33.3059 91.4507C32.2255 92.3418 30.8641 92.0475 29.7334 91.2888C28.5991 90.5277 27.774 89.1615 27.3915 87.4821C26.9575 85.5768 26.7232 83.3957 27.5685 81.7843C28.442 80.1192 30.0274 79.9064 31.4918 79.6658Z" fill="#F3D0A7"/>
<path fill-rule="evenodd" clip-rule="evenodd" d="M32.4918 57.6658C34.3355 57.3628 36.8162 56.0381 37.7673 58.2728C38.7295 60.5336 36.4443 62.7807 35.6965 65.1956C35.2302 66.7012 35.3151 68.6184 34.3059 69.4507C33.2255 70.3418 31.8641 70.0475 30.7334 69.2888C29.5991 68.5277 28.774 67.1615 28.3915 65.4821C27.9575 63.5768 27.7232 61.3957 28.5685 59.7843C29.442 58.1192 31.0274 57.9064 32.4918 57.6658Z" fill="#F3D0A7"/>
<path fill-rule="evenodd" clip-rule="evenodd" d="M94.4918 52.6658C96.3355 52.3628 98.8162 51.0381 99.7673 53.2728C100.73 55.5336 98.4443 57.7807 97.6965 60.1956C97.2302 61.7012 97.3151 63.6184 96.3059 64.4507C95.2255 65.3418 93.8641 65.0475 92.7334 64.2888C91.5991 63.5277 90.774 62.1615 90.3915 60.4821C89.9575 58.5768 89.7232 56.3957 90.5685 54.7843C91.442 53.1192 93.0274 52.9064 94.4918 52.6658Z" fill="#F3D0A7"/>
<path fill-rule="evenodd" clip-rule="evenodd" d="M62.2094 93.7917C63.4117 93.6365 64.6673 92.3922 65.6395 93.3737C66.7843 94.5296 67.0734 96.6694 66.9853 98.6136C66.871 101.134 66.6922 104.067 65.0974 105.335C63.4273 106.662 61.289 105.811 59.6288 104.46C58.1425 103.252 57.029 101.116 57.0003 98.7491C56.976 96.7417 58.3005 95.311 59.5041 94.1655C60.2872 93.4203 61.26 93.9142 62.2094 93.7917Z" fill="#F3D0A7"/>
<path fill-rule="evenodd" clip-rule="evenodd" d="M73.2094 35.7917C74.4117 35.6365 75.6673 34.3922 76.6395 35.3737C77.7843 36.5296 78.0734 38.6694 77.9853 40.6136C77.871 43.1344 77.6922 46.0674 76.0974 47.3349C74.4273 48.6623 72.289 47.8109 70.6288 46.4605C69.1425 45.2516 68.029 43.1165 68.0003 40.7491C67.976 38.7417 69.3005 37.311 70.5041 36.1655C71.2872 35.4203 72.26 35.9142 73.2094 35.7917Z" fill="#F3D0A7"/>
<path fill-rule="evenodd" clip-rule="evenodd" d="M54.2094 50.7917C55.4117 50.6365 56.6673 49.3922 57.6395 50.3737C58.7843 51.5296 59.0734 53.6694 58.9853 55.6136C58.871 58.1344 58.6922 61.0674 57.0974 62.3349C55.4273 63.6623 53.289 62.8109 51.6288 61.4605C50.1425 60.2516 49.029 58.1165 49.0003 55.7491C48.976 53.7417 50.3005 52.311 51.5041 51.1655C52.2872 50.4203 53.26 50.9142 54.2094 50.7917Z" fill="#F3D0A7"/>
<path fill-rule="evenodd" clip-rule="evenodd" d="M56.4918 15.6658C58.3355 15.3628 60.8162 14.0381 61.7673 16.2728C62.7295 18.5336 60.4443 20.7807 59.6965 23.1956C59.2302 24.7012 59.3151 26.6184 58.3059 27.4507C57.2255 28.3418 55.8641 28.0475 54.7334 27.2888C53.5991 26.5277 52.774 25.1615 52.3915 23.4821C51.9575 21.5768 51.7232 19.3957 52.5685 17.7843C53.442 16.1192 55.0274 15.9064 56.4918 15.6658Z" fill="#F3D0A7"/>
<path fill-rule="evenodd" clip-rule="evenodd" d="M77.4918 72.6658C79.3355 72.3628 81.8162 71.0381 82.7673 73.2728C83.7295 75.5336 81.4443 77.7807 80.6965 80.1956C80.2302 81.7012 80.3151 83.6184 79.3059 84.4507C78.2255 85.3418 76.8641 85.0475 75.7334 84.2888C74.5991 83.5277 73.774 82.1615 73.3915 80.4821C72.9575 78.5768 72.7232 76.3957 73.5685 74.7843C74.442 73.1192 76.0274 72.9064 77.4918 72.6658Z" fill="#F3D0A7"/>
<path fill-rule="evenodd" clip-rule="evenodd" d="M80.2602 92.2824C79.1371 92.4655 78.0689 92.8993 77.2148 93.686C76.4157 94.4222 76.0244 95.4673 75.6634 96.5169C75.2898 97.6033 74.7863 98.7362 75.0968 99.8442C75.4105 100.964 76.4942 101.554 77.3001 102.359C78.2618 103.319 78.9347 105.071 80.2602 104.998C81.6012 104.924 82.1055 103.093 83.0034 102.045C83.6743 101.263 84.5244 100.644 84.8466 99.6475C85.1716 98.6425 84.8967 97.5968 84.7826 96.5423C84.6341 95.1695 85.0605 93.4896 84.0807 92.5667C83.1069 91.6494 81.5534 92.0716 80.2602 92.2824Z" fill="#AD7463"/>
<path fill-rule="evenodd" clip-rule="evenodd" d="M83.2602 46.2824C82.1371 46.4655 81.0689 46.8993 80.2148 47.686C79.4157 48.4222 79.0244 49.4673 78.6634 50.5169C78.2898 51.6033 77.7863 52.7362 78.0968 53.8442C78.4105 54.964 79.4942 55.5543 80.3001 56.3587C81.2618 57.3186 81.9347 59.0706 83.2602 58.9978C84.6012 58.9241 85.1055 57.0929 86.0034 56.0454C86.6743 55.2628 87.5244 54.6444 87.8466 53.6475C88.1716 52.6425 87.8967 51.5968 87.7826 50.5423C87.6341 49.1695 88.0605 47.4896 87.0807 46.5667C86.1069 45.6494 84.5534 46.0716 83.2602 46.2824Z" fill="#AD7463"/>
<path fill-rule="evenodd" clip-rule="evenodd" d="M85.2602 63.2824C84.1371 63.4655 83.0689 63.8993 82.2148 64.686C81.4157 65.4222 81.0244 66.4673 80.6634 67.5169C80.2898 68.6033 79.7863 69.7362 80.0968 70.8442C80.4105 71.964 81.4942 72.5543 82.3001 73.3587C83.2618 74.3186 83.9347 76.0706 85.2602 75.9978C86.6012 75.9241 87.1055 74.0929 88.0034 73.0454C88.6743 72.2628 89.5244 71.6444 89.8466 70.6475C90.1716 69.6425 89.8967 68.5968 89.7826 67.5423C89.6341 66.1695 90.0605 64.4896 89.0807 63.5667C88.1069 62.6494 86.5534 63.0716 85.2602 63.2824Z" fill="#AD7463"/>
<path fill-rule="evenodd" clip-rule="evenodd" d="M37.2824 45.7398C37.4655 46.8629 37.8993 47.9311 38.686 48.7852C39.4222 49.5843 40.4673 49.9756 41.5169 50.3366C42.6033 50.7102 43.7362 51.2137 44.8442 50.9032C45.964 50.5895 46.5543 49.5059 47.3587 48.6999C48.3186 47.7382 50.0706 47.0653 49.9978 45.7398C49.9241 44.3988 48.0929 43.8945 47.0454 42.9966C46.2628 42.3257 45.6444 41.4756 44.6475 41.1534C43.6425 40.8284 42.5968 41.1033 41.5423 41.2174C40.1695 41.3659 38.4896 40.9395 37.5667 41.9193C36.6494 42.8931 37.0716 44.4466 37.2824 45.7398Z" fill="#AD7463"/>
<path fill-rule="evenodd" clip-rule="evenodd" d="M80.345 21.0018C82.2097 21.038 84.2649 21.774 84.8527 24.3533C85.4487 26.969 84.1404 29.4145 82.6477 31.1068C80.9273 33.0572 78.7515 35.0835 76.9335 33.3311C74.9488 31.4178 74.5627 27.3875 75.4527 24.1711C76.1906 21.5043 78.3722 20.9636 80.345 21.0018Z" fill="#737169"/>
<path fill-rule="evenodd" clip-rule="evenodd" d="M100.345 38.0018C102.21 38.038 104.265 38.774 104.853 41.3533C105.449 43.969 104.14 46.4145 102.648 48.1068C100.927 50.0572 98.7515 52.0835 96.9335 50.3311C94.9488 48.4178 94.5627 44.3875 95.4527 41.1711C96.1906 38.5043 98.3722 37.9636 100.345 38.0018Z" fill="#737169"/>
<path fill-rule="evenodd" clip-rule="evenodd" d="M55.345 63.0018C57.2097 63.038 59.2649 63.774 59.8527 66.3533C60.4487 68.969 59.1404 71.4145 57.6477 73.1068C55.9273 75.0572 53.7515 77.0835 51.9335 75.3311C49.9488 73.4178 49.5627 69.3875 50.4527 66.1711C51.1906 63.5043 53.3722 62.9636 55.345 63.0018Z" fill="#737169"/>
<path fill-rule="evenodd" clip-rule="evenodd" d="M72.345 85.0018C74.2097 85.038 76.2649 85.774 76.8527 88.3533C77.4487 90.969 76.1404 93.4145 74.6477 95.1068C72.9273 97.0572 70.7515 99.0835 68.9335 97.3311C66.9488 95.4178 66.5627 91.3875 67.4527 88.1711C68.1906 85.5043 70.3722 84.9636 72.345 85.0018Z" fill="#737169"/>
<path fill-rule="evenodd" clip-rule="evenodd" d="M48.9458 21.2938C49.7633 20.9975 50.699 20.7612 51.4134 21.4367C52.1293 22.1135 52.2828 23.562 52.6029 24.7515C52.9104 25.8944 53.1003 27.0325 53.2461 28.2479C53.4602 30.0317 54.5414 32.3304 53.6576 33.5411C52.7175 34.8291 51.2316 33.0296 49.9858 32.7146C49.3132 32.5445 48.6715 32.4263 48.0209 32.1158C47.3819 31.8109 46.737 31.5597 46.2167 30.9162C45.6248 30.1843 45.1674 29.2631 44.8555 28.2017C44.4587 26.8513 43.6398 25.2076 44.1773 23.9761C44.748 22.6685 46.1656 23.5315 47.1309 22.9885C47.81 22.6065 48.2416 21.5489 48.9458 21.2938Z" fill="#737169"/>
<path fill-rule="evenodd" clip-rule="evenodd" d="M66.5734 44.0043C68.0335 44.0912 68.9284 45.7642 69.9166 47.0317C70.8391 48.2151 71.9781 49.3591 71.9996 50.9647C72.0214 52.5854 71.0252 53.9105 70.024 55.024C69.0576 56.0987 67.9031 57.0207 66.5734 56.9996C65.2577 56.9788 64.0884 56.0734 63.2143 54.9163C62.3933 53.8294 62.0741 52.417 62.0145 50.9647C61.9511 49.4182 62.0707 47.839 62.8739 46.6126C63.7861 45.2199 65.0808 43.9155 66.5734 44.0043Z" fill="#737169"/>
<path fill-rule="evenodd" clip-rule="evenodd" d="M49.5247 93.1072C51.0296 92.5175 52.6116 94.4767 53.2934 96.1567C53.8652 97.5657 52.481 99.018 52.5558 100.576C52.6412 102.354 54.71 104.149 53.7433 105.523C52.805 106.856 50.9961 104.985 49.5247 104.882C48.2301 104.791 46.8558 105.818 45.7826 104.964C44.6077 104.029 43.6668 102.157 44.113 100.576C44.5486 99.0327 46.7462 99.6091 47.6438 98.3703C48.7357 96.8634 47.9252 93.7339 49.5247 93.1072Z" fill="#E88163"/>
<path fill-rule="evenodd" clip-rule="evenodd" d="M63.5247 76.1072C65.0296 75.5175 66.6116 77.4767 67.2934 79.1567C67.8652 80.5657 66.481 82.018 66.5558 83.5759C66.6412 85.3538 68.71 87.1492 67.7433 88.5225C66.805 89.8555 64.9961 87.9853 63.5247 87.882C62.2301 87.7911 60.8558 88.8177 59.7826 87.9638C58.6077 87.0289 57.6668 85.1565 58.113 83.5759C58.5486 82.0327 60.7462 82.6091 61.6438 81.3703C62.7357 79.8634 61.9252 76.7339 63.5247 76.1072Z" fill="#E88163"/>
<path fill-rule="evenodd" clip-rule="evenodd" d="M70.8271 62.102C72.2859 61.767 74.2354 62.2307 74.8557 63.8883C75.4786 65.5531 73.9177 67.1477 73.349 68.8416C73.1009 69.5807 72.7972 70.1883 72.5016 70.9005C71.9233 72.2932 72.0401 74.4461 70.8271 74.9158C69.6213 75.3828 68.5767 73.7996 67.6127 72.7939C66.5191 71.6529 64.8965 70.6001 65.0052 68.8416C65.1134 67.0903 67.0267 66.6515 68.0667 65.4476C69.0446 64.3155 69.5068 62.4053 70.8271 62.102Z" fill="#E88163"/>
<path fill-rule="evenodd" clip-rule="evenodd" d="M60.8271 30.102C62.2859 29.767 64.2354 30.2307 64.8557 31.8883C65.4786 33.5531 63.9177 35.1477 63.349 36.8416C63.1009 37.5807 62.7972 38.1883 62.5016 38.9005C61.9233 40.2932 62.0401 42.4461 60.8271 42.9158C59.6213 43.3828 58.5767 41.7996 57.6127 40.7939C56.5191 39.6529 54.8965 38.6001 55.0052 36.8416C55.1134 35.0903 57.0267 34.6515 58.0667 33.4476C59.0446 32.3155 59.5068 30.4053 60.8271 30.102Z" fill="#E88163"/>
<path fill-rule="evenodd" clip-rule="evenodd" d="M103.993 57.5378C105.205 57.115 106.201 54.2807 107.352 55.1726C108.734 56.2427 110.251 59.1522 109.965 62.162C109.672 65.2382 107.61 65.5284 106.241 66.8398C105.516 67.5344 104.766 68.2974 103.993 67.8824C103.341 67.5319 103.22 65.7224 102.667 64.9207C101.832 63.7103 100.328 64.197 100.047 62.162C99.7742 60.1847 100.737 58.1893 101.599 57.1798C102.324 56.3304 103.173 57.824 103.993 57.5378Z" fill="#E88163"/>
<path fill-rule="evenodd" clip-rule="evenodd" d="M20.9933 48.5378C22.2052 48.115 23.2007 45.2807 24.3524 46.1726C25.7343 47.2427 27.2514 50.1522 26.9648 53.162C26.6719 56.2382 24.6105 56.5284 23.2414 57.8398C22.5164 58.5344 21.7661 59.2974 20.9933 58.8824C20.3406 58.5319 20.2205 56.7224 19.6674 55.9207C18.8325 54.7103 17.3281 55.197 17.0472 53.162C16.7742 51.1847 17.7374 49.1893 18.5988 48.1798C19.3236 47.3304 20.1729 48.824 20.9933 48.5378Z" fill="#E88163"/>
<path fill-rule="evenodd" clip-rule="evenodd" d="M50.3626 77.6076C50.3823 78.3398 50.146 79.0775 49.6915 79.7915C49.2616 80.467 48.5343 80.9767 47.8564 81.5454C46.9329 82.3203 46.2781 83.476 45.015 83.7151C43.7515 83.9542 42.9281 83.0541 41.8697 82.6786C40.5577 82.2131 38.4541 82.3442 38.0795 81.2547C37.7071 80.1714 39.5467 79.088 40.2431 77.9471C40.8941 76.8806 40.9074 75.6562 42.0207 74.7977C43.2324 73.8634 44.9198 73.07 46.458 73.1546C47.9638 73.2375 48.7822 74.3172 49.568 75.2133C50.1618 75.8904 50.3389 76.7318 50.3626 77.6076Z" fill="#AD7463"/>
<path fill-rule="evenodd" clip-rule="evenodd" d="M36.4363 52.1231C35.9411 51.0986 35.2212 50.198 34.2239 49.6032C33.2907 49.0466 32.1775 48.969 31.0686 48.9217C29.9208 48.8727 28.6914 48.7126 27.7176 49.3256C26.7334 49.945 26.476 51.1519 25.9343 52.1535C25.2878 53.3486 23.7998 54.4924 24.2469 55.7423C24.6992 57.0069 26.5982 56.9691 27.8579 57.5317C28.7992 57.9521 29.634 58.5909 30.6813 58.6162C31.7373 58.6416 32.6615 58.0804 33.6399 57.6709C34.9136 57.1379 36.6454 57.0685 37.2512 55.8665C37.8534 54.6718 37.0065 53.3028 36.4363 52.1231Z" fill="#AD7463"/>
<path fill-rule="evenodd" clip-rule="evenodd" d="M23.123 68.6169C22.0985 69.1121 21.1979 69.832 20.6031 70.8293C20.0465 71.7625 19.9689 72.8758 19.9216 73.9846C19.8727 75.1324 19.7125 76.3618 20.3255 77.3357C20.945 78.3198 22.1518 78.5772 23.1534 79.119C24.3485 79.7654 25.4924 81.2534 26.7423 80.8063C28.0068 80.354 27.969 78.4551 28.5317 77.1953C28.952 76.2541 29.5909 75.4192 29.6161 74.3719C29.6415 73.3159 29.0804 72.3918 28.6709 71.4133C28.1378 70.1396 28.0684 68.4079 26.8664 67.802C25.6718 67.1998 24.3028 68.0467 23.123 68.6169Z" fill="#AD7463"/>
<path d="M121.026 121.026C118.868 123.184 115.369 123.184 113.212 121.026L94.8221 102.636C94.1313 101.946 94.1313 100.826 94.8221 100.135L100.135 94.8218C100.826 94.131 101.946 94.131 102.637 94.8218L121.026 113.211C123.185 115.369 123.185 118.868 121.026 121.026Z" fill="#AE7463"/>
<path d="M100.077 94.8814L94.169 88.9736C93.4265 89.9334 92.6226 90.8615 91.7421 91.7419C90.8627 92.6223 89.9347 93.4253 88.9749 94.1688L94.8816 100.076L100.077 94.8814Z" fill="#AAA599"/>
<circle cx="70.9948" cy="70.9946" r="22" fill="white" fill-opacity="0.3"/>
<path d="M91.6509 50.5621C80.272 39.1823 61.7973 39.1406 50.4691 50.4698C39.1408 61.798 39.1825 80.2718 50.5614 91.6506C61.9402 103.029 80.414 103.071 91.7422 91.7429C103.071 80.4137 103.03 61.94 91.6509 50.5621ZM86.0478 86.0466C82.0805 90.0139 76.7881 92.1906 71.1463 92.1767C65.5075 92.1628 60.2102 89.9632 56.229 85.983C47.9906 77.7437 47.9618 64.3678 56.1644 56.1642C60.1308 52.1979 65.4232 50.0212 71.0669 50.0351C76.7047 50.048 82.0031 52.2485 85.9833 56.2287C89.9655 60.2109 92.165 65.5103 92.1779 71.15C92.1908 76.7908 90.0131 82.0822 86.0478 86.0466Z" fill="#AAA599"/>
<rect x="0.5" width="124" height="124" rx="6" fill="#EAF1FF"/>
<circle cx="62.5" cy="62" r="43" fill="#AAA599"/>
<path fill-rule="evenodd" clip-rule="evenodd" d="M42.7058 72.5918C42.9827 73.416 43.197 74.3571 42.5049 75.0554C41.8114 75.7551 40.3597 75.8745 39.163 76.1665C38.0132 76.447 36.8709 76.6101 35.6524 76.7273C33.8641 76.8993 31.5406 77.9262 30.351 77.0142C29.0854 76.044 30.9194 74.6008 31.2637 73.3628C31.4495 72.6944 31.5828 72.0557 31.9085 71.4125C32.2283 70.7809 32.4947 70.1421 33.1502 69.637C33.8959 69.0625 34.8276 68.627 35.896 68.3401C37.2554 67.9752 38.9179 67.1952 40.1364 67.7615C41.4302 68.3628 40.5341 69.7597 41.0542 70.7375C41.4202 71.4254 42.4673 71.8818 42.7058 72.5918Z" fill="#737169"/>
<path fill-rule="evenodd" clip-rule="evenodd" d="M85.4458 36.2938C86.2633 35.9975 87.199 35.7612 87.9134 36.4367C88.6293 37.1135 88.7828 38.562 89.1029 39.7515C89.4104 40.8944 89.6003 42.0325 89.7461 43.2479C89.9602 45.0317 91.0414 47.3304 90.1576 48.5411C89.2175 49.8291 87.7316 48.0296 86.4858 47.7146C85.8132 47.5445 85.1715 47.4263 84.5209 47.1158C83.8819 46.8109 83.237 46.5597 82.7167 45.9162C82.1248 45.1843 81.6674 44.2631 81.3555 43.2017C80.9587 41.8513 80.1398 40.2076 80.6773 38.9761C81.248 37.6685 82.6656 38.5315 83.6309 37.9885C84.31 37.6065 84.7416 36.5489 85.4458 36.2938Z" fill="#737169"/>
<path fill-rule="evenodd" clip-rule="evenodd" d="M66.3799 76.2435C65.9756 77.3072 65.8158 78.449 66.0688 79.5823C66.3055 80.6428 67.014 81.505 67.7414 82.3433C68.4944 83.2109 69.2227 84.2142 70.3372 84.5007C71.4634 84.7902 72.5172 84.1481 73.6172 83.8537C74.9297 83.5023 76.7831 83.7977 77.3842 82.6141C77.9923 81.4167 76.6602 80.0628 76.2035 78.7608C75.8623 77.7881 75.753 76.7426 75.0517 75.9643C74.3447 75.1795 73.302 74.8935 72.3323 74.4639C71.0699 73.9046 69.8297 72.6939 68.54 73.0795C67.2582 73.4627 66.8453 75.0187 66.3799 76.2435Z" fill="#AD7463"/>
<path fill-rule="evenodd" clip-rule="evenodd" d="M62.3799 29.2435C61.9756 30.3072 61.8158 31.449 62.0688 32.5823C62.3055 33.6428 63.014 34.505 63.7414 35.3433C64.4944 36.2109 65.2227 37.2142 66.3372 37.5007C67.4634 37.7902 68.5172 37.1481 69.6172 36.8537C70.9297 36.5023 72.7831 36.7977 73.3842 35.6141C73.9923 34.4167 72.6602 33.0628 72.2035 31.7608C71.8623 30.7881 71.753 29.7426 71.0517 28.9643C70.3447 28.1795 69.302 27.8935 68.3323 27.4639C67.0699 26.9046 65.8297 25.6939 64.54 26.0795C63.2582 26.4627 62.8453 28.0187 62.3799 29.2435Z" fill="#AD7463"/>
<path fill-rule="evenodd" clip-rule="evenodd" d="M95.3799 68.2435C94.9756 69.3072 94.8158 70.449 95.0688 71.5823C95.3055 72.6428 96.014 73.505 96.7414 74.3433C97.4944 75.2109 98.2227 76.2142 99.3372 76.5007C100.463 76.7902 101.517 76.1481 102.617 75.8537C103.93 75.5023 105.783 75.7977 106.384 74.6141C106.992 73.4167 105.66 72.0628 105.204 70.7608C104.862 69.7881 104.753 68.7426 104.052 67.9643C103.345 67.1795 102.302 66.8935 101.332 66.4639C100.07 65.9046 98.8297 64.6939 97.54 65.0795C96.2582 65.4627 95.8453 67.0187 95.3799 68.2435Z" fill="#AD7463"/>
<path fill-rule="evenodd" clip-rule="evenodd" d="M28.0734 35.0043C29.5335 35.0912 30.4284 36.7642 31.4166 38.0317C32.3391 39.2151 33.4781 40.3591 33.4996 41.9647C33.5214 43.5854 32.5252 44.9105 31.524 46.024C30.5576 47.0987 29.4031 48.0207 28.0734 47.9996C26.7577 47.9788 25.5884 47.0734 24.7143 45.9163C23.8933 44.8294 23.5741 43.417 23.5145 41.9647C23.4511 40.4182 23.5707 38.839 24.3739 37.6126C25.2861 36.2199 26.5808 34.9155 28.0734 35.0043Z" fill="#737169"/>
<path fill-rule="evenodd" clip-rule="evenodd" d="M42.845 86.0018C44.7097 86.038 46.7649 86.774 47.3527 89.3533C47.9487 91.969 46.6404 94.4145 45.1477 96.1068C43.4273 98.0572 41.2515 100.083 39.4335 98.3311C37.4488 96.4178 37.0627 92.3875 37.9527 89.1711C38.6906 86.5043 40.8722 85.9636 42.845 86.0018Z" fill="#737169"/>
<path fill-rule="evenodd" clip-rule="evenodd" d="M100.845 73.0018C102.71 73.038 104.765 73.774 105.353 76.3533C105.949 78.969 104.64 81.4145 103.148 83.1068C101.427 85.0572 99.2515 87.0835 97.4335 85.3311C95.4488 83.4178 95.0627 79.3875 95.9527 76.1711C96.6906 73.5043 98.8722 72.9636 100.845 73.0018Z" fill="#737169"/>
<path fill-rule="evenodd" clip-rule="evenodd" d="M54.845 38.0018C56.7097 38.038 58.7649 38.774 59.3527 41.3533C59.9487 43.969 58.6404 46.4145 57.1477 48.1068C55.4273 50.0572 53.2515 52.0835 51.4335 50.3311C49.4488 48.4178 49.0627 44.3875 49.9527 41.1711C50.6906 38.5043 52.8722 37.9636 54.845 38.0018Z" fill="#737169"/>
<path fill-rule="evenodd" clip-rule="evenodd" d="M39.0247 22.1072C40.5296 21.5175 42.1116 23.4767 42.7934 25.1567C43.3652 26.5657 41.981 28.018 42.0558 29.5759C42.1412 31.3538 44.21 33.1492 43.2433 34.5225C42.305 35.8555 40.4961 33.9853 39.0247 33.882C37.7301 33.7911 36.3558 34.8177 35.2826 33.9638C34.1077 33.0289 33.1668 31.1565 33.613 29.5759C34.0486 28.0327 36.2462 28.6091 37.1438 27.3703C38.2357 25.8634 37.4252 22.7339 39.0247 22.1072Z" fill="#E88163"/>
<path fill-rule="evenodd" clip-rule="evenodd" d="M43.0247 56.1072C44.5296 55.5175 46.1116 57.4767 46.7934 59.1567C47.3652 60.5657 45.981 62.018 46.0558 63.5759C46.1412 65.3538 48.21 67.1492 47.2433 68.5225C46.305 69.8555 44.4961 67.9853 43.0247 67.882C41.7301 67.7911 40.3558 68.8177 39.2826 67.9638C38.1077 67.0289 37.1668 65.1565 37.613 63.5759C38.0486 62.0327 40.2462 62.6091 41.1438 61.3703C42.2357 59.8634 41.4252 56.7339 43.0247 56.1072Z" fill="#E88163"/>
<path fill-rule="evenodd" clip-rule="evenodd" d="M75.0247 45.1072C76.5296 44.5175 78.1116 46.4767 78.7934 48.1567C79.3652 49.5657 77.981 51.018 78.0558 52.5759C78.1412 54.3538 80.21 56.1492 79.2433 57.5225C78.305 58.8555 76.4961 56.9853 75.0247 56.882C73.7301 56.7911 72.3558 57.8177 71.2826 56.9638C70.1077 56.0289 69.1668 54.1565 69.613 52.5759C70.0486 51.0327 72.2462 51.6091 73.1438 50.3703C74.2357 48.8634 73.4252 45.7339 75.0247 45.1072Z" fill="#E88163"/>
<path fill-rule="evenodd" clip-rule="evenodd" d="M91.3271 28.102C92.7859 27.767 94.7354 28.2307 95.3557 29.8883C95.9786 31.5531 94.4177 33.1477 93.849 34.8416C93.6009 35.5807 93.2972 36.1883 93.0016 36.9005C92.4233 38.2932 92.5401 40.4461 91.3271 40.9158C90.1213 41.3828 89.0767 39.7996 88.1127 38.7939C87.0191 37.6529 85.3965 36.6001 85.5052 34.8416C85.6134 33.0903 87.5267 32.6515 88.5667 31.4476C89.5446 30.3155 90.0068 28.4053 91.3271 28.102Z" fill="#E88163"/>
<path fill-rule="evenodd" clip-rule="evenodd" d="M31.9918 79.6658C33.8355 79.3628 36.3162 78.0381 37.2673 80.2728C38.2295 82.5336 35.9443 84.7807 35.1965 87.1956C34.7302 88.7012 34.8151 90.6184 33.8059 91.4507C32.7255 92.3418 31.3641 92.0475 30.2334 91.2888C29.0991 90.5277 28.274 89.1615 27.8915 87.4821C27.4575 85.5768 27.2232 83.3957 28.0685 81.7843C28.942 80.1192 30.5274 79.9064 31.9918 79.6658Z" fill="#F3D0A7"/>
<path fill-rule="evenodd" clip-rule="evenodd" d="M81.9918 58.6658C83.8355 58.3628 86.3162 57.0381 87.2673 59.2728C88.2295 61.5336 85.9443 63.7807 85.1965 66.1956C84.7302 67.7012 84.8151 69.6184 83.8059 70.4507C82.7255 71.3418 81.3641 71.0475 80.2334 70.2888C79.0991 69.5277 78.274 68.1615 77.8915 66.4821C77.4575 64.5768 77.2232 62.3957 78.0685 60.7843C78.942 59.1192 80.5274 58.9064 81.9918 58.6658Z" fill="#F3D0A7"/>
<path fill-rule="evenodd" clip-rule="evenodd" d="M32.9918 57.6658C34.8355 57.3628 37.3162 56.0381 38.2673 58.2728C39.2295 60.5336 36.9443 62.7807 36.1965 65.1956C35.7302 66.7012 35.8151 68.6184 34.8059 69.4507C33.7255 70.3418 32.3641 70.0475 31.2334 69.2888C30.0991 68.5277 29.274 67.1615 28.8915 65.4821C28.4575 63.5768 28.2232 61.3957 29.0685 59.7843C29.942 58.1192 31.5274 57.9064 32.9918 57.6658Z" fill="#F3D0A7"/>
<path fill-rule="evenodd" clip-rule="evenodd" d="M94.9918 52.6658C96.8355 52.3628 99.3162 51.0381 100.267 53.2728C101.23 55.5336 98.9443 57.7807 98.1965 60.1956C97.7302 61.7012 97.8151 63.6184 96.8059 64.4507C95.7255 65.3418 94.3641 65.0475 93.2334 64.2888C92.0991 63.5277 91.274 62.1615 90.8915 60.4821C90.4575 58.5768 90.2232 56.3957 91.0685 54.7843C91.942 53.1192 93.5274 52.9064 94.9918 52.6658Z" fill="#F3D0A7"/>
<path fill-rule="evenodd" clip-rule="evenodd" d="M46.1514 38.0444C47.4681 39.37 49.9866 40.6214 48.7187 42.6928C47.436 44.7885 44.2798 44.2316 41.8792 45.0241C40.3825 45.5182 38.8705 46.6999 37.6069 46.3611C36.2543 45.9983 35.7038 44.7189 35.6655 43.3578C35.627 41.9923 36.2608 40.5275 37.4064 39.2414C38.7062 37.7822 40.3465 36.3256 42.1492 36.0788C44.0122 35.8238 45.1056 36.9915 46.1514 38.0444Z" fill="#F3D0A7"/>
<path fill-rule="evenodd" clip-rule="evenodd" d="M86.188 91.5583C85.8776 89.7158 84.5429 87.2405 86.7737 86.2804C89.0306 85.309 91.2869 87.5852 93.7048 88.3232C95.2123 88.7834 97.1291 88.6908 97.9655 89.6967C98.8609 90.7735 98.5721 92.1361 97.818 93.2698C97.0615 94.4072 95.6986 95.2378 94.0208 95.6271C92.1173 96.0687 89.9371 96.3118 88.3224 95.473C86.6537 94.6062 86.4346 93.0217 86.188 91.5583Z" fill="#F3D0A7"/>
<path fill-rule="evenodd" clip-rule="evenodd" d="M62.7094 93.7917C63.9117 93.6365 65.1673 92.3922 66.1395 93.3737C67.2843 94.5296 67.5734 96.6694 67.4853 98.6136C67.371 101.134 67.1922 104.067 65.5974 105.335C63.9273 106.662 61.789 105.811 60.1288 104.46C58.6425 103.252 57.529 101.116 57.5003 98.7491C57.476 96.7417 58.8005 95.311 60.0041 94.1655C60.7872 93.4203 61.76 93.9142 62.7094 93.7917Z" fill="#F3D0A7"/>
<path fill-rule="evenodd" clip-rule="evenodd" d="M73.7094 35.7917C74.9117 35.6365 76.1673 34.3922 77.1395 35.3737C78.2843 36.5296 78.5734 38.6694 78.4853 40.6136C78.371 43.1344 78.1922 46.0674 76.5974 47.3349C74.9273 48.6623 72.789 47.8109 71.1288 46.4605C69.6425 45.2516 68.529 43.1165 68.5003 40.7491C68.476 38.7417 69.8005 37.311 71.0041 36.1655C71.7872 35.4203 72.76 35.9142 73.7094 35.7917Z" fill="#F3D0A7"/>
<path fill-rule="evenodd" clip-rule="evenodd" d="M54.7094 50.7917C55.9117 50.6365 57.1673 49.3922 58.1395 50.3737C59.2843 51.5296 59.5734 53.6694 59.4853 55.6136C59.371 58.1344 59.1922 61.0674 57.5974 62.3349C55.9273 63.6623 53.789 62.8109 52.1288 61.4605C50.6425 60.2516 49.529 58.1165 49.5003 55.7491C49.476 53.7417 50.8005 52.311 52.0041 51.1655C52.7872 50.4203 53.76 50.9142 54.7094 50.7917Z" fill="#F3D0A7"/>
<path fill-rule="evenodd" clip-rule="evenodd" d="M56.9918 15.6658C58.8355 15.3628 61.3162 14.0381 62.2673 16.2728C63.2295 18.5336 60.9443 20.7807 60.1965 23.1956C59.7302 24.7012 59.8151 26.6184 58.8059 27.4507C57.7255 28.3418 56.3641 28.0475 55.2334 27.2888C54.0991 26.5277 53.274 25.1615 52.8915 23.4821C52.4575 21.5768 52.2232 19.3957 53.0685 17.7843C53.942 16.1192 55.5274 15.9064 56.9918 15.6658Z" fill="#F3D0A7"/>
<path fill-rule="evenodd" clip-rule="evenodd" d="M77.9918 72.6658C79.8355 72.3628 82.3162 71.0381 83.2673 73.2728C84.2295 75.5336 81.9443 77.7807 81.1965 80.1956C80.7302 81.7012 80.8151 83.6184 79.8059 84.4507C78.7255 85.3418 77.3641 85.0475 76.2334 84.2888C75.0991 83.5277 74.274 82.1615 73.8915 80.4821C73.4575 78.5768 73.2232 76.3957 74.0685 74.7843C74.942 73.1192 76.5274 72.9064 77.9918 72.6658Z" fill="#F3D0A7"/>
<path fill-rule="evenodd" clip-rule="evenodd" d="M80.7602 92.2824C79.6371 92.4655 78.5689 92.8993 77.7148 93.686C76.9157 94.4222 76.5244 95.4673 76.1634 96.5169C75.7898 97.6033 75.2863 98.7362 75.5968 99.8442C75.9105 100.964 76.9942 101.554 77.8001 102.359C78.7618 103.319 79.4347 105.071 80.7602 104.998C82.1012 104.924 82.6055 103.093 83.5034 102.045C84.1743 101.263 85.0244 100.644 85.3466 99.6475C85.6716 98.6425 85.3967 97.5968 85.2826 96.5423C85.1341 95.1695 85.5605 93.4896 84.5807 92.5667C83.6069 91.6494 82.0534 92.0716 80.7602 92.2824Z" fill="#AD7463"/>
<path fill-rule="evenodd" clip-rule="evenodd" d="M83.7602 46.2824C82.6371 46.4655 81.5689 46.8993 80.7148 47.686C79.9157 48.4222 79.5244 49.4673 79.1634 50.5169C78.7898 51.6033 78.2863 52.7362 78.5968 53.8442C78.9105 54.964 79.9942 55.5543 80.8001 56.3587C81.7618 57.3186 82.4347 59.0706 83.7602 58.9978C85.1012 58.9241 85.6055 57.0929 86.5034 56.0454C87.1743 55.2628 88.0244 54.6444 88.3466 53.6475C88.6716 52.6425 88.3967 51.5968 88.2826 50.5423C88.1341 49.1695 88.5605 47.4896 87.5807 46.5667C86.6069 45.6494 85.0534 46.0716 83.7602 46.2824Z" fill="#AD7463"/>
<path fill-rule="evenodd" clip-rule="evenodd" d="M85.7602 63.2824C84.6371 63.4655 83.5689 63.8993 82.7148 64.686C81.9157 65.4222 81.5244 66.4673 81.1634 67.5169C80.7898 68.6033 80.2863 69.7362 80.5968 70.8442C80.9105 71.964 81.9942 72.5543 82.8001 73.3587C83.7618 74.3186 84.4347 76.0706 85.7602 75.9978C87.1012 75.9241 87.6055 74.0929 88.5034 73.0454C89.1743 72.2628 90.0244 71.6444 90.3466 70.6475C90.6716 69.6425 90.3967 68.5968 90.2826 67.5423C90.1341 66.1695 90.5605 64.4896 89.5807 63.5667C88.6069 62.6494 87.0534 63.0716 85.7602 63.2824Z" fill="#AD7463"/>
<path fill-rule="evenodd" clip-rule="evenodd" d="M75.522 58.1355C74.6425 57.4134 73.6112 56.898 72.4563 56.7767C71.3757 56.6632 70.3326 57.06 69.3063 57.4824C68.2439 57.9197 67.0609 58.2903 66.4342 59.2554C65.8009 60.2307 66.0737 61.4341 66.0024 62.5706C65.9172 63.9267 65.0466 65.5894 65.977 66.5363C66.9182 67.4942 68.626 66.6629 70.0056 66.6449C71.0364 66.6315 72.0622 66.861 73.0234 66.4443C73.9926 66.0242 74.5959 65.127 75.3121 64.3446C76.2445 63.3262 77.7873 62.5365 77.8327 61.1912C77.8779 59.8541 76.5346 58.9669 75.522 58.1355Z" fill="#AD7463"/>
<path fill-rule="evenodd" clip-rule="evenodd" d="M58.1416 90.3955C58.7534 89.436 59.1417 88.3504 59.124 87.1893C59.1075 86.1029 58.5888 85.1147 58.0467 84.1463C57.4855 83.1438 56.9761 82.0136 55.9429 81.5068C54.8989 80.9947 53.7367 81.4095 52.5998 81.4746C51.2433 81.5522 49.4884 80.8867 48.6596 81.9237C47.8211 82.9727 48.8507 84.5688 49.0335 85.9364C49.1702 86.9581 49.065 88.0041 49.5936 88.9085C50.1266 89.8205 51.0896 90.3122 51.9519 90.9297C53.0745 91.7336 54.0431 93.1708 55.3842 93.0551C56.7171 92.94 57.4372 91.5003 58.1416 90.3955Z" fill="#AD7463"/>
<path fill-rule="evenodd" clip-rule="evenodd" d="M38.7824 51.7398C38.9655 52.8629 39.3993 53.9311 40.186 54.7852C40.9222 55.5843 41.9673 55.9756 43.0169 56.3366C44.1033 56.7102 45.2362 57.2137 46.3442 56.9032C47.464 56.5895 48.0543 55.5059 48.8587 54.6999C49.8186 53.7382 51.5706 53.0653 51.4978 51.7398C51.4241 50.3988 49.5929 49.8945 48.5454 48.9966C47.7628 48.3257 47.1444 47.4756 46.1475 47.1534C45.1425 46.8284 44.0968 47.1033 43.0423 47.2174C41.6695 47.3659 39.9896 46.9395 39.0667 47.9193C38.1494 48.8931 38.5716 50.4466 38.7824 51.7398Z" fill="#AD7463"/>
<path fill-rule="evenodd" clip-rule="evenodd" d="M80.845 21.0018C82.7097 21.038 84.7649 21.774 85.3527 24.3533C85.9487 26.969 84.6404 29.4145 83.1477 31.1068C81.4273 33.0572 79.2515 35.0835 77.4335 33.3311C75.4488 31.4178 75.0627 27.3875 75.9527 24.1711C76.6906 21.5043 78.8722 20.9636 80.845 21.0018Z" fill="#737169"/>
<path fill-rule="evenodd" clip-rule="evenodd" d="M100.845 38.0018C102.71 38.038 104.765 38.774 105.353 41.3533C105.949 43.969 104.64 46.4145 103.148 48.1068C101.427 50.0572 99.2515 52.0835 97.4335 50.3311C95.4488 48.4178 95.0627 44.3875 95.9527 41.1711C96.6906 38.5043 98.8722 37.9636 100.845 38.0018Z" fill="#737169"/>
<path fill-rule="evenodd" clip-rule="evenodd" d="M55.845 63.0018C57.7097 63.038 59.7649 63.774 60.3527 66.3533C60.9487 68.969 59.6404 71.4145 58.1477 73.1068C56.4273 75.0572 54.2515 77.0835 52.4335 75.3311C50.4488 73.4178 50.0627 69.3875 50.9527 66.1711C51.6906 63.5043 53.8722 62.9636 55.845 63.0018Z" fill="#737169"/>
<path fill-rule="evenodd" clip-rule="evenodd" d="M72.845 85.0018C74.7097 85.038 76.7649 85.774 77.3527 88.3533C77.9487 90.969 76.6404 93.4145 75.1477 95.1068C73.4273 97.0572 71.2515 99.0835 69.4335 97.3311C67.4488 95.4178 67.0627 91.3875 67.9527 88.1711C68.6906 85.5043 70.8722 84.9636 72.845 85.0018Z" fill="#737169"/>
<path fill-rule="evenodd" clip-rule="evenodd" d="M49.4458 21.2938C50.2633 20.9975 51.199 20.7612 51.9134 21.4367C52.6293 22.1135 52.7828 23.562 53.1029 24.7515C53.4104 25.8944 53.6003 27.0325 53.7461 28.2479C53.9602 30.0317 55.0414 32.3304 54.1576 33.5411C53.2175 34.8291 51.7316 33.0296 50.4858 32.7146C49.8132 32.5445 49.1715 32.4263 48.5209 32.1158C47.8819 31.8109 47.237 31.5597 46.7167 30.9162C46.1248 30.1843 45.6674 29.2631 45.3555 28.2017C44.9587 26.8513 44.1398 25.2076 44.6773 23.9761C45.248 22.6685 46.6656 23.5315 47.6309 22.9885C48.31 22.6065 48.7416 21.5489 49.4458 21.2938Z" fill="#737169"/>
<path fill-rule="evenodd" clip-rule="evenodd" d="M67.0734 44.0043C68.5335 44.0912 69.4284 45.7642 70.4166 47.0317C71.3391 48.2151 72.4781 49.3591 72.4996 50.9647C72.5214 52.5854 71.5252 53.9105 70.524 55.024C69.5576 56.0987 68.4031 57.0207 67.0734 56.9996C65.7577 56.9788 64.5884 56.0734 63.7143 54.9163C62.8933 53.8294 62.5741 52.417 62.5145 50.9647C62.4511 49.4182 62.5707 47.839 63.3739 46.6126C64.2861 45.2199 65.5808 43.9155 67.0734 44.0043Z" fill="#737169"/>
<path fill-rule="evenodd" clip-rule="evenodd" d="M50.0247 93.1072C51.5296 92.5175 53.1116 94.4767 53.7934 96.1567C54.3652 97.5657 52.981 99.018 53.0558 100.576C53.1412 102.354 55.21 104.149 54.2433 105.523C53.305 106.856 51.4961 104.985 50.0247 104.882C48.7301 104.791 47.3558 105.818 46.2826 104.964C45.1077 104.029 44.1668 102.157 44.613 100.576C45.0486 99.0327 47.2462 99.6091 48.1438 98.3703C49.2357 96.8634 48.4252 93.7339 50.0247 93.1072Z" fill="#E88163"/>
<path fill-rule="evenodd" clip-rule="evenodd" d="M64.0247 76.1072C65.5296 75.5175 67.1116 77.4767 67.7934 79.1567C68.3652 80.5657 66.981 82.018 67.0558 83.5759C67.1412 85.3538 69.21 87.1492 68.2433 88.5225C67.305 89.8555 65.4961 87.9853 64.0247 87.882C62.7301 87.7911 61.3558 88.8177 60.2826 87.9638C59.1077 87.0289 58.1668 85.1565 58.613 83.5759C59.0486 82.0327 61.2462 82.6091 62.1438 81.3703C63.2357 79.8634 62.4252 76.7339 64.0247 76.1072Z" fill="#E88163"/>
<path fill-rule="evenodd" clip-rule="evenodd" d="M68.3271 62.102C69.7859 61.767 71.7354 62.2307 72.3557 63.8883C72.9786 65.5531 71.4177 67.1477 70.849 68.8416C70.6009 69.5807 70.2972 70.1883 70.0016 70.9005C69.4233 72.2932 69.5401 74.4461 68.3271 74.9158C67.1213 75.3828 66.0767 73.7996 65.1127 72.7939C64.0191 71.6529 62.3965 70.6001 62.5052 68.8416C62.6134 67.0903 64.5267 66.6515 65.5667 65.4476C66.5446 64.3155 67.0068 62.4053 68.3271 62.102Z" fill="#E88163"/>
<path fill-rule="evenodd" clip-rule="evenodd" d="M74.9961 25.4579C74.7262 26.9301 73.5284 28.5367 71.7607 28.45C69.9853 28.3628 69.139 26.2981 67.8087 25.1052C67.2283 24.5846 66.7906 24.0653 66.2537 23.5117C65.2038 22.4293 63.1806 21.6841 63.2295 20.3842C63.2782 19.0921 65.1456 18.7597 66.4508 18.2728C67.9316 17.7203 69.5408 16.6472 71.1125 17.4433C72.6778 18.2361 72.3232 20.1667 73.017 21.5984C73.6693 22.9446 75.2404 24.1255 74.9961 25.4579Z" fill="#E88163"/>
<path fill-rule="evenodd" clip-rule="evenodd" d="M61.3271 30.102C62.7859 29.767 64.7354 30.2307 65.3557 31.8883C65.9786 33.5531 64.4177 35.1477 63.849 36.8416C63.6009 37.5807 63.2972 38.1883 63.0016 38.9005C62.4233 40.2932 62.5401 42.4461 61.3271 42.9158C60.1213 43.3828 59.0767 41.7996 58.1127 40.7939C57.0191 39.6529 55.3965 38.6001 55.5052 36.8416C55.6134 35.0903 57.5267 34.6515 58.5667 33.4476C59.5446 32.3155 60.0068 30.4053 61.3271 30.102Z" fill="#E88163"/>
<path fill-rule="evenodd" clip-rule="evenodd" d="M104.493 57.5378C105.705 57.115 106.701 54.2807 107.852 55.1726C109.234 56.2427 110.751 59.1522 110.465 62.162C110.172 65.2382 108.11 65.5284 106.741 66.8398C106.016 67.5344 105.266 68.2974 104.493 67.8824C103.841 67.5319 103.72 65.7224 103.167 64.9207C102.332 63.7103 100.828 64.197 100.547 62.162C100.274 60.1847 101.237 58.1893 102.099 57.1798C102.824 56.3304 103.673 57.824 104.493 57.5378Z" fill="#E88163"/>
<path fill-rule="evenodd" clip-rule="evenodd" d="M89.4933 73.5378C90.7052 73.115 91.7007 70.2807 92.8524 71.1726C94.2343 72.2427 95.7514 75.1522 95.4648 78.162C95.1719 81.2382 93.1105 81.5284 91.7414 82.8398C91.0164 83.5344 90.2661 84.2974 89.4933 83.8824C88.8406 83.5319 88.7205 81.7224 88.1674 80.9207C87.3325 79.7103 85.8281 80.197 85.5472 78.162C85.2742 76.1847 86.2374 74.1893 87.0988 73.1798C87.8236 72.3304 88.6729 73.824 89.4933 73.5378Z" fill="#E88163"/>
<path fill-rule="evenodd" clip-rule="evenodd" d="M21.4933 48.5378C22.7052 48.115 23.7007 45.2807 24.8524 46.1726C26.2343 47.2427 27.7514 50.1522 27.4648 53.162C27.1719 56.2382 25.1105 56.5284 23.7414 57.8398C23.0164 58.5344 22.2661 59.2974 21.4933 58.8824C20.8406 58.5319 20.7205 56.7224 20.1674 55.9207C19.3325 54.7103 17.8281 55.197 17.5472 53.162C17.2742 51.1847 18.2374 49.1893 19.0988 48.1798C19.8236 47.3304 20.6729 48.824 21.4933 48.5378Z" fill="#E88163"/>
<path fill-rule="evenodd" clip-rule="evenodd" d="M50.8626 77.6076C50.8823 78.3398 50.646 79.0775 50.1915 79.7915C49.7616 80.467 49.0343 80.9767 48.3564 81.5454C47.4329 82.3203 46.7781 83.476 45.515 83.7151C44.2515 83.9542 43.4281 83.0541 42.3697 82.6786C41.0577 82.2131 38.9541 82.3442 38.5795 81.2547C38.2071 80.1714 40.0467 79.088 40.7431 77.9471C41.3941 76.8806 41.4074 75.6562 42.5207 74.7977C43.7324 73.8634 45.4198 73.07 46.958 73.1546C48.4638 73.2375 49.2822 74.3172 50.068 75.2133C50.6618 75.8904 50.8389 76.7318 50.8626 77.6076Z" fill="#AD7463"/>
<path fill-rule="evenodd" clip-rule="evenodd" d="M36.9363 52.1231C36.4411 51.0986 35.7212 50.198 34.7239 49.6032C33.7907 49.0466 32.6775 48.969 31.5686 48.9217C30.4208 48.8727 29.1914 48.7126 28.2176 49.3256C27.2334 49.945 26.976 51.1519 26.4343 52.1535C25.7878 53.3486 24.2998 54.4924 24.7469 55.7423C25.1992 57.0069 27.0982 56.9691 28.3579 57.5317C29.2992 57.9521 30.134 58.5909 31.1813 58.6162C32.2373 58.6416 33.1615 58.0804 34.1399 57.6709C35.4136 57.1379 37.1454 57.0685 37.7512 55.8665C38.3534 54.6718 37.5065 53.3028 36.9363 52.1231Z" fill="#AD7463"/>
<path fill-rule="evenodd" clip-rule="evenodd" d="M23.623 68.6169C22.5985 69.1121 21.6979 69.832 21.1031 70.8293C20.5465 71.7625 20.4689 72.8758 20.4216 73.9846C20.3727 75.1324 20.2125 76.3618 20.8255 77.3357C21.445 78.3198 22.6518 78.5772 23.6534 79.119C24.8485 79.7654 25.9924 81.2534 27.2423 80.8063C28.5068 80.354 28.469 78.4551 29.0317 77.1953C29.452 76.2541 30.0909 75.4192 30.1161 74.3719C30.1415 73.3159 29.5804 72.3918 29.1709 71.4133C28.6378 70.1396 28.5684 68.4079 27.3664 67.802C26.1718 67.1998 24.8028 68.0467 23.623 68.6169Z" fill="#AD7463"/>
<path d="M121.526 121.026C119.368 123.184 115.869 123.184 113.712 121.026L95.3221 102.636C94.6313 101.946 94.6313 100.826 95.3221 100.135L100.635 94.8218C101.326 94.131 102.446 94.131 103.137 94.8218L121.526 113.211C123.685 115.369 123.685 118.868 121.526 121.026Z" fill="#AE7463"/>
<path d="M100.577 94.8814L94.669 88.9736C93.9265 89.9334 93.1226 90.8615 92.2421 91.7419C91.3627 92.6223 90.4347 93.4253 89.4749 94.1688L95.3816 100.076L100.577 94.8814Z" fill="#6C695F"/>
<circle cx="71.4948" cy="70.9946" r="22" fill="white" fill-opacity="0.3"/>
<path d="M92.1509 50.5621C80.772 39.1823 62.2973 39.1406 50.9691 50.4698C39.6408 61.798 39.6825 80.2718 51.0614 91.6506C62.4402 103.029 80.914 103.071 92.2422 91.7429C103.571 80.4137 103.53 61.94 92.1509 50.5621ZM86.5478 86.0466C82.5805 90.0139 77.2881 92.1906 71.6463 92.1767C66.0075 92.1628 60.7102 89.9632 56.729 85.983C48.4906 77.7437 48.4618 64.3678 56.6644 56.1642C60.6308 52.1979 65.9232 50.0212 71.5669 50.0351C77.2047 50.048 82.5031 52.2485 86.4833 56.2287C90.4655 60.2109 92.665 65.5103 92.6779 71.15C92.6908 76.7908 90.5131 82.0822 86.5478 86.0466Z" fill="#6C695F"/>
</g>
<defs>
<clipPath id="clip0_1031_9707">
<rect width="124" height="124" rx="6" fill="white"/>
</clipPath>
</defs>
</svg>
