<svg width="124" height="124" viewBox="0 0 124 124" fill="none" xmlns="http://www.w3.org/2000/svg">
<rect width="124" height="124" rx="6" fill="#EAF1FF"/>
<path d="M71.083 59.042H122.984V74.535H85.5795C83.642 74.535 81.8187 73.6139 80.6693 72.0536L71.083 59.042Z" fill="#829DCC"/>
<path d="M122.984 74.536H85.5796C83.6421 74.536 81.8187 73.6148 80.6693 72.0535L70.7734 58.6211C69.624 57.0607 67.8016 56.1396 65.8641 56.1396H55.8649C54.7801 56.1396 53.715 55.8498 52.779 55.3009L35.3088 45.0516C34.3728 44.5027 33.3078 44.2129 32.2229 44.2129H4.0656C2.3812 44.2129 1.01642 45.5777 1.01642 47.2621V58.4424H32.2229C33.3078 58.4424 34.3728 58.7322 35.3088 59.2811L52.779 69.5304C53.714 70.0793 54.7801 70.3691 55.8649 70.3691H61.7985C63.736 70.3691 65.5594 71.2902 66.7078 72.8506L76.6037 86.284C78 88.4998 78 88.7655 81.514 88.7655H122.984V74.536Z" fill="#F3D0A7"/>
<path d="M122.984 88.7654H80.4867C79.1944 88.7654 77.9794 88.151 77.2132 87.1108L66.0984 72.0237C65.3321 70.9835 64.1162 70.3691 62.8249 70.3691H55.3121C54.5895 70.3691 53.8788 70.1766 53.2555 69.8103L34.8323 59.0012C34.208 58.6359 33.4983 58.4424 32.7747 58.4424H1.01642V77.7539H30.742C31.4655 77.7539 32.1762 77.9474 32.7996 78.3127L51.2217 89.1218C51.846 89.488 52.5557 89.6806 53.2793 89.6806H60.7911C60.7911 89.6806 64 90.9998 64.0646 91.3352L75.1794 106.422C75.9457 107.463 77.1606 108.077 78.4529 108.077H122.984V88.7654Z" fill="#F3B8A7"/>
<path d="M1.01642 97.9131H27.658C28.6298 97.9131 29.5876 98.1444 30.4511 98.59L49.843 108.585C50.7075 109.03 51.6654 109.262 52.6371 109.262H56.0585C57.7915 109.262 59.4422 110 60.5985 111.289L71.083 122.983H6.00006C1.01642 122.983 1.01642 119.684 1.01642 118V97.9131Z" fill="#AE7463"/>
<path d="M79.4812 108.077C77.5437 108.077 75.7203 107.156 74.5709 105.596L64.675 92.1621C63.5256 90.6018 61.7033 89.6806 59.7658 89.6806H53.8322C52.7473 89.6806 51.6822 89.3918 50.7463 88.8419L33.276 78.5926C32.341 78.0427 31.275 77.7539 30.1901 77.7539H1.01642V97.913H27.658C28.6298 97.913 29.5876 98.1453 30.4511 98.59L49.843 108.585C50.7075 109.03 51.6654 109.262 52.6371 109.262H56.0585C57.7915 109.262 59.4422 110 60.5985 111.289L71.0831 122.983H116.885C120.253 122.983 122.984 120.253 122.984 116.885V108.077H79.4812Z" fill="#E88163"/>
<path d="M121.031 121.031C118.873 123.189 115.375 123.189 113.217 121.031L94.8273 102.642C94.1365 101.951 94.1365 100.831 94.8273 100.14L100.141 94.8272C100.831 94.1364 101.951 94.1364 102.642 94.8272L121.031 113.217C123.19 115.374 123.19 118.873 121.031 121.031Z" fill="#AE7463"/>
<path d="M100.082 94.8868L94.1742 88.979C93.4318 89.9388 92.6278 90.8669 91.7474 91.7473C90.868 92.6277 89.9399 93.4307 88.9801 94.1741L94.8869 100.081L100.082 94.8868Z" fill="#AAA599"/>
<circle cx="71" cy="71" r="22" fill="white" fill-opacity="0.3"/>
<path d="M91.6561 50.5675C80.2772 39.1877 61.8025 39.146 50.4743 50.4752C39.146 61.8034 39.1877 80.2771 50.5666 91.656C61.9454 103.035 80.4192 103.077 91.7474 91.7483C103.077 80.4191 103.035 61.9453 91.6561 50.5675ZM86.053 86.0519C82.0857 90.0192 76.7933 92.1959 71.1515 92.1821C65.5127 92.1682 60.2154 89.9686 56.2341 85.9884C47.9958 77.7491 47.967 64.3732 56.1696 56.1696C60.136 52.2033 65.4283 50.0265 71.0721 50.0404C76.7099 50.0533 82.0083 52.2539 85.9885 56.2341C89.9707 60.2163 92.1702 65.5156 92.1831 71.1554C92.196 76.7962 90.0183 82.0876 86.053 86.0519Z" fill="#AAA599"/>
</svg>
