<svg width="24" height="24" viewBox="0 0 24 24" fill="none" xmlns="http://www.w3.org/2000/svg">
<g clip-path="url(#clip0_342_47443)">
<path fill-rule="evenodd" clip-rule="evenodd" d="M15.536 1.48116L23.121 9.06717C23.4006 9.34496 23.6222 9.67547 23.7731 10.0396C23.924 10.4036 24.0011 10.7941 24 11.1882V21.0052C24 21.8008 23.6839 22.5639 23.1213 23.1265C22.5587 23.6891 21.7957 24.0052 21 24.0052H3.00001C2.20436 24.0052 1.4413 23.6891 0.878691 23.1265C0.316082 22.5639 1.20797e-05 21.8008 1.20797e-05 21.0052V11.1882C-0.0011104 10.7941 0.0760058 10.4036 0.226893 10.0396C0.37778 9.67547 0.599437 9.34496 0.879012 9.06717L8.46401 1.48116C9.40277 0.545144 10.6743 0.0195312 12 0.0195312C13.3257 0.0195312 14.5973 0.545144 15.536 1.48116ZM14.9465 3.21875L21.2673 9.54421C21.5003 9.77584 21.685 10.0514 21.8107 10.355C21.9365 10.6586 22.0007 10.9841 21.9998 11.3128V19.4985C21.9998 20.1619 21.7364 21.2635 21.2676 21.7327C20.9095 22.091 20.454 22.0579 19.9633 22.0223C19.8116 22.0113 19.6564 22 19.4998 22H4.49982C3.83678 22 2.96823 21.9691 2.49939 21.5C2.03055 21.0309 1.99983 20.1619 1.99983 19.4985V11.3128C1.99889 10.9841 2.06315 10.6586 2.18889 10.355C2.31463 10.0514 2.49935 9.77584 2.73233 9.54421L9.05315 3.21875C9.83545 2.43827 10.8951 2 11.9998 2C13.1045 2 14.1642 2.43827 14.9465 3.21875Z" fill="#678CCC"/>
</g>
<defs>
<clipPath id="clip0_342_47443">
<rect width="24" height="24" fill="white"/>
</clipPath>
</defs>
</svg>
