<svg width="142" height="84" viewBox="0 0 142 84" fill="none" xmlns="http://www.w3.org/2000/svg">
<g clip-path="url(#clip0_228_44275)">
<path d="M48.3149 26L84 79H-43L48.3149 26Z" fill="url(#paint0_linear_228_44275)"/>
<path d="M106.596 10L142 62H16L106.596 10Z" fill="url(#paint1_linear_228_44275)"/>
<path d="M30 49.8446V45.7159C30 44.4772 30.4162 43.6515 31.2487 42.8257C32.0812 42 32.9137 42 33.7462 42H49.5634L54.9746 49.8446H30ZM51.2284 73.3784H33.7462C32.4975 73.3784 31.665 72.9655 30.8325 72.1397C30 71.314 30 70.4883 30 69.2496V51.4961H37.9086V65.5338H47.4822V61.405H44.5685L39.5736 53.5604H54.9746V69.2496C54.9746 70.4883 54.9746 71.314 54.1421 72.1397C53.3096 72.9655 52.4772 73.3784 51.2284 73.3784Z" fill="white"/>
<path d="M78.2844 73.3784H58.3047V42H78.2844L83.6955 49.8446H66.2133V65.5338H83.2793L78.2844 73.3784ZM73.7057 61.405H67.8783V53.5604H78.7006L73.7057 61.405Z" fill="white"/>
<path d="M86.6086 49.8446V45.7159C86.6086 44.4772 87.0249 43.6515 87.8574 42.8257C88.6898 42 89.5223 42 90.3548 42H107.837C109.086 42 109.918 42.4129 110.751 43.2386C111.583 44.0644 111.999 44.8901 111.999 46.1287V49.8446H86.6086ZM107.837 73.3784H90.3548C89.1061 73.3784 88.2736 72.9655 87.4411 72.1397C86.6086 71.314 86.1924 70.4883 86.1924 69.2496V51.4961H94.101V65.5338H103.675V51.4961H111.583V69.2496C111.583 70.4883 111.167 71.314 110.335 72.1397C109.502 72.9655 109.086 73.3784 107.837 73.3784Z" fill="white"/>
</g>
<defs>
<linearGradient id="paint0_linear_228_44275" x1="20.5" y1="26" x2="20.5" y2="79" gradientUnits="userSpaceOnUse">
<stop stop-color="#E3DED2"/>
<stop offset="0.625" stop-color="#DBD6CB" stop-opacity="0"/>
</linearGradient>
<linearGradient id="paint1_linear_228_44275" x1="79" y1="10" x2="79" y2="62" gradientUnits="userSpaceOnUse">
<stop stop-color="#E3DED2"/>
<stop offset="0.625" stop-color="#DBD6CB" stop-opacity="0"/>
</linearGradient>
<clipPath id="clip0_228_44275">
<rect width="142" height="84" fill="white"/>
</clipPath>
</defs>
</svg>
