<svg width="124" height="124" viewBox="0 0 124 124" fill="none" xmlns="http://www.w3.org/2000/svg">
<rect width="124" height="124" rx="6" fill="#EAF1FF"/>
<ellipse cx="42.1244" cy="96.2104" rx="14" ry="8" transform="rotate(30 42.1244 96.2104)" fill="#B9BBC6"/>
<rect x="70" y="19.9277" width="28" height="80" transform="rotate(30 70 19.9277)" fill="#B9BBC6"/>
<ellipse cx="82.1244" cy="26.9282" rx="14" ry="8" transform="rotate(30 82.1244 26.9282)" fill="#D9D9D9"/>
<path d="M121.026 121.026C118.868 123.184 115.37 123.184 113.212 121.026L94.8223 102.636C94.1315 101.946 94.1315 100.826 94.8223 100.135L100.136 94.8218C100.826 94.131 101.946 94.131 102.637 94.8218L121.026 113.211C123.185 115.369 123.185 118.868 121.026 121.026Z" fill="#AE7463"/>
<path d="M100.077 94.8814L94.1692 88.9736C93.4268 89.9334 92.6228 90.8615 91.7424 91.7419C90.863 92.6223 89.9349 93.4253 88.9751 94.1688L94.8819 100.076L100.077 94.8814Z" fill="#AAA599"/>
<circle cx="70.9946" cy="70.9941" r="22" fill="white" fill-opacity="0.3"/>
<path d="M91.6509 50.5621C80.272 39.1823 61.7973 39.1406 50.4691 50.4698C39.1408 61.798 39.1825 80.2718 50.5614 91.6506C61.9402 103.029 80.414 103.071 91.7422 91.7429C103.071 80.4137 103.03 61.94 91.6509 50.5621ZM86.0478 86.0466C82.0805 90.0139 76.7881 92.1906 71.1463 92.1767C65.5075 92.1628 60.2102 89.9632 56.229 85.983C47.9906 77.7437 47.9618 64.3678 56.1644 56.1642C60.1308 52.1979 65.4232 50.0212 71.0669 50.0351C76.7047 50.048 82.0031 52.2485 85.9833 56.2287C89.9655 60.2109 92.165 65.5103 92.1779 71.15C92.1908 76.7908 90.0131 82.0822 86.0478 86.0466Z" fill="#AAA599"/>
</svg>
