<svg width="24" height="24" viewBox="0 0 24 24" fill="none" xmlns="http://www.w3.org/2000/svg">
<path d="M17.25 0H6.75C5.75544 0 4.80161 0.702379 4.09835 1.95262C3.39509 3.20286 3 4.89856 3 6.66667L3 17.3333C3 19.1014 3.39509 20.7971 4.09835 22.0474C4.80161 23.2976 5.75544 24 6.75 24H17.25C17.7425 24 18.2301 23.8276 18.6851 23.4925C19.14 23.1575 19.5534 22.6664 19.9017 22.0474C20.2499 21.4283 20.5261 20.6934 20.7145 19.8846C20.903 19.0757 21 18.2088 21 17.3333V6.66667C21 5.79119 20.903 4.92428 20.7145 4.11544C20.5261 3.30661 20.2499 2.57168 19.9017 1.95262C19.5534 1.33356 19.14 0.842501 18.6851 0.50747C18.2301 0.172438 17.7425 0 17.25 0V0ZM19.5 17.3333C19.5 18.3942 19.2629 19.4116 18.841 20.1618C18.419 20.9119 17.8467 21.3333 17.25 21.3333H6.75C6.15326 21.3333 5.58097 20.9119 5.15901 20.1618C4.73705 19.4116 4.5 18.3942 4.5 17.3333V6.66667C4.5 5.6058 4.73705 4.58839 5.15901 3.83824C5.58097 3.08809 6.15326 2.66667 6.75 2.66667H17.25C17.8467 2.66667 18.419 3.08809 18.841 3.83824C19.2629 4.58839 19.5 5.6058 19.5 6.66667V17.3333Z" fill="#678CCC"/>
<line x1="3" y1="8.5" x2="21" y2="8.5" stroke="#678CCC"/>
</svg>
